<?xml version="1.0" standalone="no"?>
<!DOCTYPE svg PUBLIC "-//W3C//DTD SVG 20010904//EN"
 "http://www.w3.org/TR/2001/REC-SVG-20010904/DTD/svg10.dtd">
<svg version="1.0" xmlns="http://www.w3.org/2000/svg"
 width="512.000000pt" height="512.000000pt" viewBox="0 0 512.000000 512.000000"
 preserveAspectRatio="xMidYMid meet">
<metadata>
Created by potrace 1.14, written by Peter Selinger 2001-2017
</metadata>
<g transform="translate(0.000000,512.000000) scale(0.100000,-0.100000)"
fill="#000000" stroke="none">
<path d="M2228 3655 c-2 -2 -26 -6 -53 -9 -125 -13 -309 -87 -429 -174 -71
-51 -171 -153 -211 -214 -16 -24 -35 -54 -44 -68 -9 -14 -25 -45 -35 -70 -10
-25 -22 -54 -27 -65 -23 -52 -51 -199 -53 -281 -5 -167 49 -393 112 -466 8
-10 12 -18 9 -18 -7 0 25 -48 58 -89 30 -37 101 -107 126 -125 13 -8 21 -18
18 -20 -6 -7 -143 87 -236 162 -139 112 -210 141 -338 140 -255 -4 -450 -220
-439 -488 2 -39 8 -78 15 -86 6 -8 9 -14 5 -14 -11 0 41 -94 71 -126 29 -31
123 -100 123 -89 0 3 19 -4 43 -16 23 -12 42 -21 42 -19 0 1 18 -3 40 -9 36
-9 58 -14 135 -27 14 -3 52 -7 85 -10 33 -3 68 -10 79 -16 13 -7 16 -7 12 1
-4 6 -3 11 3 11 5 0 13 -5 16 -10 5 -8 11 -8 19 -1 7 6 16 8 20 4 10 -10 498
-11 519 -1 9 5 17 5 17 1 0 -10 173 -9 188 1 6 3 13 2 17 -3 4 -7 15 -7 30 -1
15 6 25 6 25 0 0 -5 12 -5 30 0 17 5 30 5 30 1 0 -9 36 -7 63 4 10 5 17 3 17
-5 0 -9 4 -9 13 -2 16 13 29 13 46 -1 12 -9 13 -9 7 1 -8 13 19 13 42 -1 6 -5
12 -5 12 0 0 4 80 9 178 10 456 3 1100 14 1127 17 124 18 147 22 194 36 54 17
56 17 61 17 3 0 24 12 48 26 23 15 42 24 42 21 0 -4 7 -1 15 6 17 14 20 30 5
30 -5 0 -10 -8 -11 -17 0 -12 -2 -13 -6 -5 -4 10 -9 9 -20 -5 -13 -17 -13 -17
-4 3 9 18 7 21 -19 21 -16 0 -27 -3 -25 -6 2 -4 -4 -15 -12 -26 -10 -13 -14
-15 -10 -4 6 18 -7 43 -23 45 -5 1 -15 2 -21 3 -5 0 -7 6 -4 11 3 6 2 10 -3
10 -6 0 -13 -7 -16 -16 -8 -21 -8 -26 2 -20 12 7 35 -10 29 -22 -4 -5 -18 -8
-33 -6 -18 2 -24 -1 -20 -12 3 -7 2 -13 -2 -13 -4 1 -9 0 -12 -1 -3 -1 -23 -4
-44 -5 -29 -2 -35 0 -23 7 9 5 17 14 17 20 0 9 -3 9 -11 1 -6 -6 -18 -9 -27
-6 -10 4 -13 2 -8 -5 3 -6 1 -14 -5 -18 -7 -4 -9 -3 -5 4 3 6 2 13 -4 17 -5 3
-10 2 -10 -2 0 -12 -38 -14 -45 -2 -4 5 -11 6 -17 3 -7 -4 -8 -2 -4 5 4 6 11
9 16 6 5 -3 8 4 7 15 -2 26 -13 26 -27 0 -13 -25 -30 -26 -30 -2 0 13 -2 14
-9 3 -6 -9 -11 -10 -15 -2 -6 9 5 15 25 13 3 -1 6 12 6 28 0 24 -3 27 -14 19
-7 -6 -10 -15 -7 -20 3 -5 2 -9 -3 -10 -4 0 -18 -2 -30 -3 -12 -1 -28 2 -35 7
-10 6 -9 8 3 4 9 -3 22 0 28 6 8 8 11 8 11 -2 0 -8 9 -2 20 12 24 31 26 50 2
22 -9 -11 -28 -20 -42 -20 -14 0 -31 -4 -37 -9 -13 -8 -15 -5 -17 23 -1 8 -7
16 -15 19 -10 3 -11 0 -5 -9 7 -12 5 -12 -9 0 -19 15 -23 26 -5 15 8 -5 9 -2
5 11 -4 9 -2 23 4 31 8 10 6 13 -10 11 -16 -1 -20 -6 -16 -22 3 -11 2 -14 -1
-7 -3 6 -10 10 -15 7 -5 -4 -6 2 -2 11 5 13 3 15 -7 9 -8 -5 -11 -4 -7 2 8 12
-17 36 -26 26 -4 -3 -7 -3 -7 2 0 4 8 14 18 22 16 13 15 14 -5 8 -12 -3 -24
-1 -28 4 -4 7 1 9 12 5 14 -4 12 -1 -6 15 -13 12 -20 21 -16 21 4 0 2 7 -6 16
-10 13 -10 17 1 24 7 4 20 5 29 2 14 -5 14 -3 3 11 -13 15 -16 15 -40 0 -15
-9 -24 -13 -20 -8 4 4 3 14 -3 22 -6 7 -8 13 -4 13 4 0 2 7 -5 15 -10 12 -8
14 8 10 17 -3 20 1 18 21 -3 28 -15 44 -17 23 -1 -8 -1 -17 0 -21 2 -12 -17
-10 -24 2 -3 6 -1 10 4 10 6 0 11 4 11 10 0 5 -8 7 -17 4 -15 -5 -15 -4 -3 4
8 6 18 8 22 6 10 -7 10 -1 -1 29 -6 14 -6 29 0 38 7 12 9 12 9 -1 0 -13 1 -13
10 0 14 22 12 30 -5 24 -8 -4 -15 -1 -15 6 0 6 5 8 10 5 6 -3 10 -2 10 3 0 8
-22 22 -34 22 -2 0 -3 -10 -3 -22 -1 -41 -3 -48 -15 -48 -6 0 -8 3 -5 7 4 3 1
13 -6 21 -9 13 -9 14 1 8 6 -4 12 -3 12 3 0 5 -5 13 -11 16 -6 4 -8 14 -5 22
4 9 1 23 -6 31 -10 12 -10 14 0 8 17 -10 15 4 -5 28 -17 20 -17 20 0 7 21 -17
22 -8 1 25 -16 23 -16 24 2 18 15 -5 14 -2 -5 15 -13 12 -19 21 -14 21 5 0 14
-5 20 -11 7 -7 11 -3 11 16 0 19 -4 23 -11 16 -14 -14 -27 -14 -27 -1 0 6 5 9
11 8 6 -2 14 3 16 10 3 8 -1 10 -11 6 -9 -3 -17 -2 -17 2 -1 5 -3 19 -4 30 -1
12 -5 26 -9 32 -10 17 13 54 29 48 9 -3 13 2 12 15 -1 10 -7 19 -15 19 -7 0
-10 -4 -7 -10 4 -6 -1 -7 -11 -3 -10 4 -15 2 -11 -3 3 -6 1 -16 -4 -24 -7 -11
-8 -7 -5 13 3 16 0 27 -6 27 -6 0 -8 3 -5 7 9 8 67 12 67 4 0 -4 9 -7 20 -7
11 0 19 5 17 11 -2 5 -10 10 -18 10 -8 0 -17 5 -21 10 -5 6 -8 5 -8 -4 0 -11
-3 -11 -15 -1 -12 10 -18 10 -30 0 -10 -9 -15 -9 -15 -1 0 6 5 11 12 11 6 0 1
9 -12 20 -13 11 -19 20 -14 21 5 1 22 2 38 3 19 1 32 8 37 21 11 29 11 32 -6
32 -11 0 -14 -7 -9 -21 4 -17 3 -18 -5 -6 -7 10 -11 11 -11 3 0 -7 -5 -13 -11
-13 -5 0 -8 4 -4 10 3 5 -6 17 -20 26 -14 9 -24 23 -21 30 3 7 1 16 -5 19 -5
4 -7 11 -3 16 3 5 10 7 15 4 5 -4 9 -2 9 3 0 17 -13 22 -29 10 -9 -7 -7 -2 4
11 20 23 20 23 0 20 -13 -3 -19 1 -17 10 1 7 -2 19 -8 26 -8 10 -4 19 17 36
20 15 22 20 8 15 -25 -10 -43 -14 -32 -9 4 3 7 11 7 19 0 9 -4 13 -9 9 -5 -3
-13 0 -17 6 -5 8 -3 9 6 4 9 -6 10 -1 5 16 -5 19 -4 21 4 9 9 -13 11 -13 11 1
0 24 -11 30 -29 17 -9 -7 -13 -8 -9 -4 4 5 3 15 -3 23 -9 9 -8 13 0 13 6 0 11
-5 11 -11 0 -6 7 -3 16 5 8 9 20 16 25 16 6 0 7 5 4 10 -4 6 -13 7 -24 1 -22
-12 -40 -1 -46 28 -2 12 0 19 6 16 5 -4 9 -1 9 4 0 6 -7 11 -15 11 -16 0 -38
34 -28 44 3 3 1 6 -6 6 -7 0 -9 5 -6 10 3 6 1 10 -4 10 -6 0 -10 3 -9 8 1 4
-4 19 -10 35 -7 15 -17 39 -22 53 -19 49 -103 169 -158 227 -31 32 -88 79
-127 105 -38 26 -73 52 -77 57 -4 6 -8 6 -8 1 0 -4 -10 -2 -22 6 -20 13 -114
48 -143 54 -5 1 -30 7 -54 14 -39 10 -245 22 -253 15z m1038 -1046 c3 -6 1
-16 -6 -22 -10 -9 -11 -9 -5 2 4 8 2 17 -6 22 -9 6 -10 9 -2 9 6 0 15 -5 19
-11z m110 -560 c3 -6 1 -16 -6 -22 -10 -9 -11 -9 -5 2 4 8 2 17 -6 22 -9 6
-10 9 -2 9 6 0 15 -5 19 -11z m621 -459 c-1 -11 -7 -22 -14 -24 -9 -4 -10 0
-1 19 14 30 17 31 15 5z m57 -5 c-7 -16 -24 -21 -24 -6 0 8 7 13 27 20 1 1 0
-6 -3 -14z m-94 -19 c0 -3 -4 -8 -10 -11 -5 -3 -10 -1 -10 4 0 6 5 11 10 11 6
0 10 -2 10 -4z"/>
<path d="M3465 3111 c5 -8 -1 -10 -18 -6 -14 4 -28 2 -31 -4 -4 -6 -12 -11
-17 -11 -6 0 -7 5 -3 11 5 8 1 8 -13 0 -11 -6 -23 -7 -27 -4 -3 3 -6 2 -6 -4
0 -16 28 -24 34 -10 3 9 5 8 5 -1 1 -7 6 -10 11 -7 6 3 10 1 10 -5 0 -7 -7
-10 -15 -6 -17 6 -19 -2 -5 -24 9 -13 10 -13 10 0 0 13 2 13 9 1 6 -9 6 -24 0
-38 -5 -14 -9 -25 -9 -27 0 -1 9 -2 21 -3 17 -2 18 1 8 13 -9 11 -9 18 -1 26
6 6 8 18 4 27 -12 26 -8 54 8 58 13 4 13 3 0 -7 -13 -10 -13 -11 1 -7 9 3 22
0 28 -6 6 -6 14 -7 18 -3 4 4 1 11 -7 16 -11 7 -11 10 -2 10 7 0 15 -7 18 -15
4 -8 10 -12 15 -9 5 3 7 9 5 12 -2 4 9 8 25 8 20 1 29 -3 29 -13 0 -11 6 -8
21 8 11 13 18 19 15 13 -3 -7 1 -17 9 -24 11 -9 14 -8 12 9 -1 12 -4 21 -7 22
-43 4 -117 2 -113 -3 6 -11 -5 -10 -29 3 -15 8 -19 8 -13 0z"/>
<path d="M3637 3104 c-4 -4 -2 -13 4 -21 9 -9 8 -13 0 -13 -6 0 -11 -5 -11
-11 0 -5 4 -8 8 -5 5 3 9 0 9 -7 0 -7 2 -19 4 -27 3 -9 -3 -15 -13 -14 -12 1
-16 -5 -14 -22 3 -25 16 -46 16 -26 0 7 -1 14 -2 17 -2 2 7 12 20 21 18 12 26
13 37 4 8 -7 15 -9 15 -4 0 15 -14 29 -30 29 -8 0 -14 8 -14 18 1 9 -2 17 -8
17 -5 0 -6 4 -3 10 8 12 -9 43 -18 34z"/>
<path d="M3669 3082 c5 -15 6 -33 3 -41 -3 -9 0 -12 10 -8 17 6 52 -29 38 -38
-6 -4 -10 -11 -10 -17 0 -6 6 -6 15 2 9 7 14 19 11 27 -3 7 0 13 6 13 7 0 6 5
-2 15 -18 21 -35 19 -19 -2 13 -16 12 -17 -3 -4 -10 7 -16 17 -13 21 3 4 -2
11 -11 14 -9 3 -14 13 -11 20 3 8 0 17 -8 20 -10 3 -11 -2 -6 -22z"/>
<path d="M3696 3094 c-4 -10 -3 -20 3 -22 5 -2 21 -12 35 -23 26 -21 26 -39
-2 -72 -8 -9 -12 -20 -9 -23 3 -4 16 9 27 27 12 19 19 25 16 14 -5 -16 -1 -21
15 -22 16 -2 18 1 9 12 -6 8 -9 18 -6 24 3 5 -1 12 -10 15 -8 3 -12 11 -8 17
4 7 3 9 -3 6 -6 -4 -13 0 -17 8 -3 8 2 19 11 23 13 8 10 10 -12 10 -15 0 -31
5 -35 12 -5 8 -9 6 -14 -6z m29 -22 c-3 -3 -11 0 -18 7 -9 10 -8 11 6 5 10 -3
15 -9 12 -12z"/>
<path d="M3287 3078 c-7 -4 -26 -9 -42 -12 -16 -3 -31 -9 -34 -13 -6 -8 -27
-15 -48 -16 -18 0 -16 -7 4 -22 13 -10 15 -16 6 -26 -8 -11 -7 -17 3 -27 8 -7
14 -9 14 -3 0 10 25 9 36 -2 13 -13 22 -7 20 11 -2 9 7 24 20 32 23 16 23 16
3 28 -17 11 -20 10 -17 -5 2 -12 -3 -18 -15 -17 -13 2 -16 -3 -12 -20 5 -17 4
-18 -4 -6 -10 13 -11 13 -11 0 0 -13 -1 -13 -10 0 -13 20 -12 39 1 20 8 -12 9
-11 7 5 -3 13 -10 19 -23 17 -16 -2 -17 -1 -6 7 10 6 21 5 35 -5 11 -8 25 -14
31 -14 5 0 2 5 -7 11 -26 15 -22 30 7 25 14 -3 25 0 25 5 0 6 6 9 13 7 6 -3
12 -11 12 -19 0 -15 14 -29 29 -29 5 0 3 6 -3 13 -6 8 -8 17 -4 20 3 4 -2 9
-11 13 -9 3 -13 11 -10 16 4 6 10 5 15 -3 8 -14 12 -15 47 -18 15 -1 15 -3 2
-11 -13 -8 -13 -10 1 -10 18 0 33 -26 23 -41 -3 -5 0 -17 6 -26 11 -17 11 -17
6 0 -3 9 -1 29 4 43 7 16 7 23 0 19 -5 -3 -15 5 -22 19 -6 14 -17 26 -25 26
-7 0 -13 4 -13 9 0 11 -34 10 -53 -1z"/>
<path d="M3520 3074 c-11 -12 -11 -18 2 -30 13 -13 15 -12 15 16 0 35 0 35
-17 14z"/>
<path d="M3549 3085 c-9 -63 0 -110 17 -92 4 3 2 12 -4 20 -7 8 -7 18 -2 27 6
8 10 11 10 6 0 -5 7 -3 15 4 13 10 18 11 28 1 9 -10 8 -11 -8 -6 -18 6 -17 4
4 -14 13 -12 28 -21 35 -20 7 0 6 2 -2 6 -6 2 -10 8 -8 12 3 4 -6 20 -20 37
-14 16 -23 24 -20 18 10 -19 -23 -25 -33 -6 -6 9 -11 13 -12 7z"/>
<path d="M3442 3064 c-7 -8 -9 -14 -3 -14 11 0 9 -19 -3 -38 -5 -8 -4 -18 2
-24 6 -6 8 -18 4 -27 -5 -14 -4 -14 11 -2 16 13 16 14 0 27 -14 11 -14 14 -3
12 8 -2 22 -13 30 -25 15 -22 16 -22 28 -3 17 27 30 25 38 -5 3 -14 10 -25 15
-25 5 0 6 6 3 14 -3 8 3 19 15 25 28 15 33 14 26 -8 -3 -10 1 -24 10 -31 14
-12 22 0 8 13 -3 4 -8 19 -9 33 -4 33 -22 54 -40 47 -11 -4 -12 -9 -3 -19 11
-13 5 -34 -10 -34 -5 0 -21 20 -36 45 -16 24 -32 42 -37 39 -5 -3 -14 -1 -21
4 -8 7 -16 5 -25 -4z m60 -39 c-2 -9 1 -14 7 -11 5 4 12 2 16 -3 3 -6 -3 -15
-14 -21 -23 -12 -34 0 -25 27 6 15 4 16 -7 6 -7 -7 -18 -13 -23 -13 -6 0 -4 5
4 10 13 9 13 10 0 10 -12 0 -13 2 -1 9 21 14 46 6 43 -14z"/>
<path d="M3766 3070 c-18 -6 -18 -7 -2 -13 9 -4 15 -11 12 -15 -3 -5 6 -14 19
-20 28 -13 33 -1 10 22 -9 8 -15 18 -15 21 3 11 -4 13 -24 5z"/>
<path d="M3810 3063 c0 -5 7 -18 16 -29 8 -10 13 -14 10 -7 -4 6 -2 15 4 18 6
4 9 1 8 -6 -2 -6 3 -14 11 -17 9 -3 11 0 6 8 -5 9 -4 11 3 6 7 -4 12 -3 12 2
0 5 -8 12 -17 15 -10 2 -26 8 -35 12 -10 4 -18 3 -18 -2z"/>
<path d="M3275 3040 c-3 -5 -1 -10 4 -10 6 0 11 5 11 10 0 6 -2 10 -4 10 -3 0
-8 -4 -11 -10z"/>
<path d="M3325 3039 c-4 -5 5 -14 19 -20 l25 -12 -22 -19 c-20 -18 -20 -19 -2
-13 11 3 17 3 13 0 -3 -4 2 -15 12 -25 9 -9 20 -24 22 -31 3 -8 9 -11 13 -7 3
3 -3 20 -15 36 -12 17 -19 35 -15 42 4 6 -5 22 -19 35 -14 13 -28 20 -31 14z"/>
<path d="M3883 3028 c-29 -46 -31 -57 -13 -55 11 1 18 8 17 17 -2 16 4 20 29
20 9 0 14 -6 11 -13 -3 -7 2 -22 10 -32 14 -19 14 -18 10 13 -3 18 -1 30 4 26
5 -3 6 -11 3 -17 -4 -7 -4 -9 1 -5 5 5 14 -1 22 -12 8 -11 19 -20 25 -20 6 0
3 10 -8 22 -15 19 -16 20 -1 9 11 -9 17 -10 17 -2 0 10 -5 12 -25 11 -3 -1
-13 6 -21 15 -9 8 -20 13 -25 10 -5 -4 -9 -1 -9 6 0 7 -3 9 -7 6 -3 -4 -12 -2
-19 4 -9 7 -15 6 -21 -3z"/>
<path d="M3830 3010 c-9 -6 -11 -13 -5 -17 12 -10 19 -37 7 -29 -5 3 -9 -7 -9
-22 0 -20 5 -28 19 -28 21 0 23 7 6 24 -9 9 -9 12 2 12 11 0 11 3 2 12 -9 9
-9 15 0 25 15 18 -2 35 -22 23z"/>
<path d="M3270 2990 c-12 -12 -18 -25 -15 -30 3 -5 -9 -16 -26 -25 -32 -17
-28 -42 5 -29 14 5 15 9 4 16 -9 6 -5 7 11 3 17 -5 22 -4 16 5 -5 9 -4 11 3 6
8 -5 10 -2 6 8 -4 10 -1 16 7 16 11 0 11 3 -1 11 -13 9 -12 10 3 5 9 -3 17 -1
17 4 0 5 6 7 13 4 8 -3 20 2 27 11 15 18 0 21 -18 3 -9 -9 -12 -9 -12 0 0 18
-18 14 -40 -8z"/>
<path d="M3790 3001 c0 -6 4 -12 10 -16 5 -3 7 -12 3 -21 -4 -11 -9 -12 -19
-3 -10 8 -14 8 -14 0 0 -10 13 -15 33 -12 4 0 7 -4 7 -10 0 -6 -9 -8 -20 -4
-15 5 -18 3 -14 -8 3 -8 1 -18 -5 -22 -7 -4 -8 -13 -3 -23 5 -9 7 -27 6 -40
-1 -16 3 -22 13 -18 8 3 17 6 19 6 2 0 4 5 4 11 0 5 -4 7 -10 4 -5 -3 -10 -1
-10 5 0 7 6 10 13 7 10 -4 13 11 11 67 -1 39 -2 74 -3 79 -2 10 -21 9 -21 -2z
m13 -98 c-7 -3 -9 -12 -6 -21 4 -14 3 -14 -5 -3 -12 17 -4 43 11 34 8 -5 8 -8
0 -10z"/>
<path d="M3893 2982 c0 -22 3 -29 9 -20 6 8 7 4 2 -12 -6 -23 -6 -24 11 -10
11 8 16 10 12 4 -4 -7 0 -17 8 -24 20 -16 19 -6 -2 33 -9 18 -16 36 -15 40 1
5 -2 6 -7 3 -5 -4 -11 0 -13 6 -3 7 -5 -2 -5 -20z"/>
<path d="M3645 2950 c-29 -58 -29 -57 -10 -57 10 0 14 7 10 21 -3 12 -2 15 1
8 5 -10 9 -9 18 4 11 15 14 15 28 0 12 -12 18 -13 22 -3 3 6 4 3 1 -9 -4 -14
0 -21 10 -21 11 0 13 6 9 20 -10 31 -45 87 -55 87 -5 0 -20 -22 -34 -50z m54
13 c8 -15 5 -18 -19 -18 -24 0 -27 3 -19 18 5 9 14 17 19 17 5 0 14 -8 19 -17z"/>
<path d="M3515 2969 c-15 -24 -14 -76 1 -76 9 0 13 6 10 14 -3 8 -2 12 3 8 5
-3 12 1 14 7 4 10 6 10 6 0 1 -7 6 -10 11 -7 6 3 10 1 10 -5 0 -7 -6 -10 -13
-7 -9 3 -14 -4 -14 -23 0 -19 5 -26 13 -23 7 2 10 12 7 21 -4 14 -3 14 5 3 7
-9 7 -23 1 -38 -12 -32 -12 -33 5 -27 8 3 12 12 10 19 -3 7 -1 16 5 20 7 4 8
13 3 23 -5 9 -7 27 -7 39 2 18 -2 21 -32 18 -18 -1 -36 2 -40 8 -3 6 -1 7 5 3
14 -9 27 13 14 26 -6 6 -12 6 -17 -3z"/>
<path d="M3580 2970 c-13 -9 -13 -12 3 -21 9 -6 15 -14 12 -20 -4 -5 -1 -9 6
-9 8 0 8 -4 1 -13 -7 -8 -7 -18 -2 -27 5 -9 5 -19 -1 -27 -6 -7 -8 -17 -5 -22
4 -5 -1 -14 -10 -19 -11 -6 -13 -11 -5 -16 6 -4 11 -1 11 6 0 11 2 11 9 0 6
-10 11 -9 22 4 12 16 12 17 -2 12 -9 -4 -16 -1 -16 8 0 7 5 10 10 7 6 -4 8 0
4 10 -12 31 2 17 19 -19 9 -19 20 -31 24 -25 3 6 18 12 33 13 29 3 31 6 18 26
-7 11 -9 11 -14 -1 -3 -7 -16 -13 -29 -12 -17 2 -22 8 -21 24 2 11 -1 20 -5
20 -20 -3 -33 2 -27 11 3 6 1 10 -6 10 -8 0 -8 4 1 15 10 13 10 19 -5 35 -9
10 -14 24 -10 29 8 14 4 14 -15 1z"/>
<path d="M3292 2957 c-7 -8 -7 -18 -2 -27 5 -8 6 -18 3 -24 -4 -5 1 -7 11 -3
10 4 20 7 22 7 2 0 4 5 4 11 0 5 -4 7 -10 4 -5 -3 -10 -1 -10 5 0 7 6 10 14 7
8 -3 16 -2 18 3 2 4 10 1 18 -8 13 -14 12 -15 -2 -10 -10 4 -19 1 -22 -8 -4
-11 0 -13 18 -8 18 4 26 1 31 -15 6 -20 6 -20 26 0 11 11 24 17 29 14 20 -12
9 33 -12 51 -12 10 -18 13 -14 7 4 -8 2 -13 -5 -13 -8 0 -8 -4 1 -15 10 -13
11 -18 1 -28 -10 -9 -15 -8 -26 8 -26 37 -36 45 -46 40 -5 -4 -9 -1 -9 4 0 15
-25 14 -38 -2z"/>
<path d="M3461 2956 c-10 -12 -10 -16 -2 -16 7 0 9 -5 6 -11 -4 -5 0 -18 8
-27 8 -9 17 -26 19 -37 2 -16 -2 -19 -21 -17 -20 2 -22 0 -11 -12 6 -9 9 -20
6 -25 -4 -5 -2 -12 4 -16 5 -3 10 -1 10 4 0 6 1 14 1 19 3 12 40 35 46 28 4
-3 1 -6 -6 -6 -7 0 -9 -5 -5 -12 4 -6 3 -8 -3 -5 -11 7 -28 -22 -18 -31 3 -3
5 0 5 7 0 8 5 9 19 2 16 -9 18 -7 17 21 -1 17 -7 33 -14 36 -6 2 -12 8 -12 13
0 4 7 6 15 3 8 -4 15 -2 15 4 0 5 -10 9 -22 8 -18 -1 -23 5 -24 24 0 14 -5 33
-10 43 -9 16 -12 17 -23 3z m29 -36 c0 -5 -2 -10 -4 -10 -3 0 -8 5 -11 10 -3
6 -1 10 4 10 6 0 11 -4 11 -10z"/>
<path d="M3742 2958 c-9 -9 -7 -15 6 -25 9 -8 11 -11 3 -7 -8 4 -12 2 -10 -5
7 -19 24 -13 25 8 2 29 -10 43 -24 29z"/>
<path d="M3867 2958 c-3 -9 -3 -26 0 -38 5 -20 3 -21 -18 -15 -18 5 -21 4 -9
-4 13 -9 12 -11 -3 -11 -14 0 -17 -5 -12 -19 7 -24 -27 -62 -52 -58 -30 4 -44
18 -38 36 3 12 0 18 -10 18 -11 0 -14 -6 -9 -16 6 -15 7 -32 3 -65 -1 -7 -12
-19 -23 -26 -12 -7 -18 -9 -14 -5 4 5 2 15 -5 24 -10 14 -10 14 4 3 14 -10 18
-10 23 4 4 9 4 19 1 22 -3 3 -5 1 -5 -5 0 -6 -8 -10 -17 -9 -12 1 -17 -8 -19
-31 -1 -22 2 -30 11 -26 20 7 39 -35 24 -53 -10 -12 -8 -14 12 -12 20 3 23 -1
21 -22 -4 -24 -3 -25 12 -5 14 18 14 21 -5 38 -12 9 -18 17 -15 17 4 0 -1 11
-9 24 -18 27 -8 40 22 29 14 -5 16 -4 7 8 -13 16 -15 51 -3 43 5 -2 6 -12 3
-22 -3 -9 1 -6 9 7 11 18 16 20 20 10 5 -12 7 -12 17 1 10 13 11 13 7 -2 -3
-9 1 -19 9 -22 11 -4 13 0 8 18 -6 26 13 39 44 30 9 -3 6 1 -7 9 -18 11 -20
16 -10 20 12 5 12 7 -1 17 -13 10 -13 11 2 7 9 -3 19 0 21 7 3 8 19 12 41 11
39 -3 45 5 19 26 -11 10 -14 10 -9 2 4 -7 3 -13 -2 -13 -4 0 -15 14 -23 32
-12 24 -17 28 -22 16z"/>
<path d="M3956 2954 c-4 -10 -3 -20 3 -22 6 -2 4 -13 -5 -28 -9 -13 -21 -21
-26 -18 -6 4 -9 1 -6 -6 2 -8 10 -16 18 -18 8 -3 10 0 5 8 -6 9 -4 11 5 5 8
-5 11 -4 7 2 -4 6 0 16 9 23 8 7 13 19 10 27 -3 7 -2 13 3 13 5 0 12 -10 16
-22 4 -16 8 -19 12 -9 3 7 -6 24 -19 38 -23 23 -26 23 -32 7z"/>
<path d="M4020 2955 c7 -9 10 -18 6 -22 -3 -3 -6 0 -6 7 0 7 -3 11 -6 8 -3 -4
-1 -15 5 -26 9 -17 8 -22 -9 -27 -11 -4 -18 -11 -15 -16 4 -5 17 -1 30 8 15
12 19 20 11 25 -8 6 -7 8 2 8 7 0 10 5 6 12 -4 6 -3 8 4 4 13 -8 6 -54 -11
-75 -10 -12 -9 -14 6 -8 10 4 20 7 23 7 2 0 1 6 -2 14 -3 8 0 17 5 21 6 3 9
12 5 18 -3 7 2 3 10 -7 20 -25 20 -35 1 -43 -14 -5 -14 -7 2 -18 26 -18 67
-30 59 -17 -3 6 -1 14 5 18 7 4 9 3 6 -3 -3 -5 0 -10 8 -10 19 0 19 3 -5 27
-11 11 -20 18 -20 15 0 -3 -6 0 -14 7 -8 7 -11 17 -8 22 3 5 0 6 -7 2 -6 -4
-14 0 -17 8 -3 9 -11 16 -18 16 -6 0 -18 9 -26 20 -8 11 -21 20 -28 20 -12 0
-12 -3 -2 -15z m115 -108 c-19 -10 -36 0 -29 18 5 11 10 12 25 2 16 -10 16
-13 4 -20z"/>
<path d="M3665 2913 c-4 -10 -9 -34 -10 -53 -3 -27 -1 -31 6 -17 6 9 15 17 22
17 8 0 8 -3 -2 -9 -7 -5 -9 -11 -4 -14 6 -4 15 5 22 20 9 21 9 30 -4 49 -19
29 -21 29 -30 7z m30 -32 c-9 -8 -36 -10 -30 -2 2 4 11 8 20 8 8 0 13 -3 10
-6z"/>
<path d="M3249 2905 c-42 -23 -48 -70 -9 -70 10 0 14 -8 12 -25 -4 -24 -3 -25
12 -5 14 18 14 21 -5 38 -12 9 -18 17 -14 17 4 0 1 8 -6 18 -13 16 -13 16 5 2
18 -14 19 -13 13 5 -7 20 -7 20 8 1 9 -12 15 -15 15 -7 0 11 3 11 15 1 12 -10
15 -10 15 1 0 11 2 11 10 -1 8 -13 10 -12 10 4 0 12 -5 16 -15 12 -8 -3 -22
-3 -31 1 -13 5 -13 7 -2 14 22 14 -5 9 -33 -6z"/>
<path d="M3973 2899 c-6 -6 -9 -17 -7 -24 8 -21 -27 -27 -48 -8 -28 25 -44 24
-57 -4 -7 -15 -7 -22 -1 -18 5 3 10 1 10 -4 0 -6 5 -11 11 -11 5 0 8 4 5 9 -4
5 0 11 6 14 18 6 50 -12 43 -24 -7 -11 2 -11 30 0 13 6 20 18 21 44 3 41 2 41
-13 26z m-78 -29 c-3 -5 -12 -10 -18 -10 -7 0 -6 4 3 10 19 12 23 12 15 0z"/>
<path d="M3340 2881 c-16 -31 -11 -38 9 -14 l19 22 12 -29 c7 -17 17 -30 22
-30 5 0 6 5 3 10 -3 6 -1 10 5 10 7 0 9 -7 6 -16 -5 -12 -1 -14 16 -8 18 5 20
3 14 -12 -15 -36 -14 -52 0 -58 12 -5 14 -1 9 17 -5 17 -4 19 4 7 7 -9 11 -10
11 -3 0 6 -4 14 -10 18 -5 3 -7 12 -4 20 4 9 -1 18 -11 21 -24 9 3 25 30 18
11 -3 16 -2 10 3 -5 4 -10 15 -10 23 0 10 -9 15 -25 14 -39 -2 -42 -3 -34 -15
5 -8 9 -8 14 1 5 9 9 8 13 -2 8 -21 -53 -16 -65 5 -12 22 -25 21 -38 -2z"/>
<path d="M3740 2880 c0 -5 5 -10 11 -10 8 0 7 -5 -1 -15 -9 -11 -10 -19 -3
-26 8 -8 13 -7 17 0 4 6 2 11 -5 11 -10 0 -10 3 -2 11 6 6 9 18 6 25 -6 16
-23 19 -23 4z"/>
<path d="M4011 2869 c-13 -10 -19 -19 -14 -19 13 0 49 27 43 33 -3 3 -16 -3
-29 -14z"/>
<path d="M4070 2880 c0 -5 5 -10 10 -10 6 0 10 5 10 10 0 6 -4 10 -10 10 -5 0
-10 -4 -10 -10z"/>
<path d="M3260 2860 c0 -4 6 -13 14 -19 13 -11 12 -17 -6 -47 -19 -32 -38 -38
-38 -11 0 7 4 6 10 -3 5 -8 10 -10 10 -5 0 6 -4 16 -9 23 -6 10 -10 10 -20 -2
-9 -10 -9 -16 -1 -21 6 -4 9 -13 6 -20 -3 -9 2 -11 16 -7 16 4 20 2 15 -10 -5
-15 9 -38 24 -38 12 0 5 35 -9 43 -7 5 -9 14 -5 20 4 7 8 18 9 25 2 8 6 17 10
20 4 4 4 -1 1 -10 -3 -10 -2 -20 4 -24 6 -3 8 -12 5 -19 -2 -7 2 -16 10 -19
12 -5 14 -1 9 15 -4 12 -8 31 -9 43 -2 11 -8 32 -15 46 -11 23 -11 23 2 7 11
-14 16 -15 21 -5 3 7 4 4 1 -8 -4 -14 0 -21 10 -21 18 0 18 5 2 32 -11 19 -67
31 -67 15z"/>
<path d="M3351 2856 c-15 -18 -6 -37 14 -30 9 4 16 -3 21 -20 3 -14 10 -26 15
-26 5 0 7 6 5 13 -1 6 -1 9 1 5 7 -13 20 -9 27 8 3 8 2 13 -3 9 -15 -9 -41 6
-54 32 -12 21 -15 23 -26 9z"/>
<path d="M3549 2843 c-9 -60 0 -107 17 -90 4 3 1 15 -7 24 -13 16 -12 17 4 4
10 -8 16 -20 13 -27 -5 -13 18 -27 28 -17 3 4 6 14 6 24 0 9 8 20 18 24 14 5
15 4 5 -6 -18 -18 -16 -34 2 -19 9 8 15 8 15 2 0 -6 -4 -12 -9 -14 -5 -1 -4
-11 4 -21 12 -17 13 -16 10 15 -1 18 -6 41 -10 51 -7 16 -10 16 -24 4 -31 -27
-77 -2 -65 36 3 9 3 17 0 17 -3 0 -6 -3 -7 -7z"/>
<path d="M3894 2832 c-6 -9 -24 -16 -40 -17 -31 0 -41 -25 -14 -32 13 -4 13
-3 0 6 -12 8 -11 10 8 8 12 0 22 -5 22 -9 0 -4 5 -8 11 -8 6 0 9 7 5 15 -3 9
4 20 21 28 19 10 22 15 11 19 -8 3 -19 -1 -24 -10z"/>
<path d="M3990 2830 c-22 -22 -26 -40 -9 -40 5 0 7 4 4 10 -4 6 1 7 12 3 16
-6 17 -5 3 13 -11 15 -11 16 0 7 21 -19 34 -16 19 5 -13 15 -12 16 3 4 9 -8
22 -11 28 -7 5 3 10 1 10 -6 0 -8 5 -7 18 2 15 13 16 12 4 -3 -12 -15 -11 -17
6 -15 16 1 18 5 12 18 -12 22 -42 33 -50 18 -6 -8 -9 -8 -14 0 -10 16 -23 14
-46 -9z"/>
<path d="M4156 2823 c-13 -13 -5 -22 15 -18 17 4 19 2 9 -10 -7 -9 -8 -15 -2
-15 5 0 15 6 21 13 8 11 5 16 -13 25 -13 6 -27 8 -30 5z"/>
<path d="M3353 2813 c-20 -7 -15 -22 7 -20 20 1 27 12 13 20 -5 2 -14 2 -20 0z"/>
<path d="M3902 2813 c-6 -2 -9 -9 -6 -15 4 -6 10 -5 15 3 6 10 8 8 7 -7 -2
-16 -8 -20 -32 -19 -37 2 -66 -5 -66 -16 0 -5 7 -6 15 -3 16 6 18 -1 17 -49
-1 -23 2 -26 13 -17 8 7 19 9 25 5 5 -3 11 0 12 7 0 7 2 18 3 23 2 6 3 16 4
24 0 7 7 11 15 8 11 -4 14 1 11 21 -2 15 -4 30 -4 35 -1 8 -10 8 -29 0z m-11
-53 c9 13 10 13 6 0 -2 -8 -10 -15 -17 -15 -7 0 -15 7 -17 15 -4 13 -3 13 6 0
10 -13 12 -13 22 0z m-1 -40 c0 -5 -4 -10 -10 -10 -5 0 -10 5 -10 10 0 6 5 10
10 10 6 0 10 -4 10 -10z"/>
<path d="M3949 2818 c-1 -2 -2 -31 -3 -65 -2 -44 1 -60 10 -56 13 5 14 35 0
44 -4 4 -3 10 3 13 11 7 13 2 13 -34 0 -35 -2 -41 -12 -35 -5 3 -10 1 -10 -4
0 -6 2 -11 4 -11 2 0 12 -3 21 -6 9 -4 15 -3 14 2 -5 29 2 37 15 19 13 -18 14
-17 12 14 -1 19 -8 37 -19 42 -22 13 -22 26 3 39 16 9 18 8 14 -5 -3 -8 -10
-12 -15 -9 -5 3 -9 1 -9 -4 0 -6 7 -13 16 -16 22 -8 22 -8 20 12 0 9 6 17 14
17 8 0 15 -7 14 -16 -1 -11 8 -16 30 -16 17 0 25 2 18 5 -6 2 -10 8 -7 13 4 5
-1 6 -9 3 -15 -6 -21 6 -17 29 3 16 -29 18 -58 2 -34 -17 -56 -12 -47 11 4 11
-10 22 -15 12z m16 -38 c3 -5 1 -10 -4 -10 -6 0 -11 5 -11 10 0 6 2 10 4 10 3
0 8 -4 11 -10z m45 -54 c0 -3 -4 -8 -10 -11 -5 -3 -10 -1 -10 4 0 6 5 11 10
11 6 0 10 -2 10 -4z"/>
<path d="M4113 2808 c1 -7 -4 -13 -10 -14 -7 -1 -18 -2 -24 -3 -5 0 -7 -6 -3
-12 5 -8 9 -8 14 1 6 9 10 6 15 -9 3 -11 11 -21 16 -21 6 0 8 4 5 9 -3 5 1 11
9 15 8 3 17 0 21 -6 4 -6 3 -8 -3 -5 -6 4 -13 0 -16 -7 -4 -10 1 -14 14 -13
14 1 18 8 17 28 -1 15 -5 26 -9 23 -4 -2 -12 3 -19 11 -15 18 -31 20 -27 3z
m22 -18 c-3 -5 -12 -10 -18 -10 -7 0 -6 4 3 10 19 12 23 12 15 0z"/>
<path d="M3317 2796 c-4 -9 -3 -16 1 -16 4 0 8 -12 7 -27 0 -21 -5 -27 -18
-25 -9 2 -17 -2 -17 -8 0 -6 4 -9 9 -6 5 4 11 0 14 -6 7 -22 18 -2 22 39 4 44
-8 76 -18 49z"/>
<path d="M3352 2777 c-5 -6 -9 -27 -7 -44 1 -18 -1 -33 -4 -34 -6 -1 -66 -9
-89 -11 -8 -1 -9 -5 -3 -11 5 -5 8 -15 5 -21 -2 -6 7 -19 21 -28 23 -17 24
-17 30 2 3 11 11 20 16 20 6 0 8 -4 5 -8 -3 -5 0 -9 7 -10 7 0 26 -3 42 -6 25
-4 31 -1 32 15 1 10 -2 19 -8 19 -5 0 -9 -4 -9 -9 0 -4 -10 -8 -22 -7 -17 1
-22 7 -20 21 3 16 1 17 -12 6 -8 -7 -20 -10 -26 -6 -9 5 -14 -7 -11 -27 0 -4
-6 -5 -14 -2 -8 4 -15 10 -15 16 0 5 5 6 10 3 6 -3 10 -2 10 4 0 5 -3 11 -7
14 -5 2 -2 2 5 1 6 -2 12 2 12 9 0 8 3 7 9 -2 7 -12 13 -12 24 -3 7 7 18 8 22
4 5 -4 5 -2 2 5 -4 6 -1 14 5 16 10 4 9 6 -1 6 -11 1 -11 4 -1 16 10 12 10 18
1 29 -9 11 -9 16 0 22 7 4 9 3 5 -4 -3 -6 -2 -13 4 -17 5 -3 10 0 10 7 0 10 2
10 9 -1 5 -8 14 -10 21 -6 9 6 11 4 6 -4 -5 -7 -15 -10 -23 -7 -9 4 -13 1 -10
-6 2 -7 10 -12 16 -10 6 1 11 -2 11 -8 0 -13 -13 -13 -27 1 -7 7 -10 3 -10
-15 0 -21 2 -24 13 -15 7 6 18 8 24 4 11 -7 12 -5 15 48 1 29 -2 37 -12 32 -8
-2 -23 -1 -33 5 -12 7 -21 6 -28 -3z"/>
<path d="M3470 2762 c-6 -14 -8 -27 -6 -30 3 -3 10 6 15 19 10 25 13 17 13
-31 0 -35 -2 -41 -12 -35 -5 3 -10 1 -10 -4 0 -6 2 -11 4 -11 2 0 12 -3 22 -7
11 -4 15 -3 10 5 -3 6 4 20 16 32 l23 21 -25 20 c-24 19 -25 20 -6 34 19 15
19 15 -6 13 -17 -1 -31 -11 -38 -26z m60 -36 c0 -3 -4 -8 -10 -11 -5 -3 -10
-1 -10 4 0 6 5 11 10 11 6 0 10 -2 10 -4z"/>
<path d="M3764 2781 c4 -6 1 -11 -6 -11 -11 0 -10 -2 0 -9 11 -7 11 -9 -2 -14
-9 -4 -24 -4 -33 -1 -15 5 -16 4 -3 -5 8 -6 11 -11 7 -11 -5 0 1 -14 13 -31
12 -16 25 -27 28 -24 4 3 0 10 -8 15 -9 6 -10 10 -3 10 21 0 25 -21 8 -40 -17
-19 -30 -90 -17 -89 23 4 33 -3 28 -17 -3 -9 -1 -14 5 -12 6 2 10 7 10 11 0 4
8 22 19 41 19 34 19 35 -1 33 -13 -1 -17 -6 -14 -18 7 -21 -6 -31 -25 -18 -8
5 -11 9 -6 9 5 0 2 8 -5 18 -13 15 -12 16 4 3 20 -15 23 -2 5 19 -11 12 -10
12 4 1 14 -11 17 -10 16 6 -1 10 2 28 6 41 4 12 4 22 -1 21 -19 -3 -31 2 -36
15 -4 11 1 13 21 10 22 -4 25 -3 15 7 -7 7 -13 17 -13 22 0 5 9 -1 20 -14 18
-23 28 -17 12 7 -10 15 -57 39 -48 25z"/>
<path d="M4192 2778 c-17 -17 -15 -29 3 -22 8 4 12 11 9 16 -4 6 3 5 15 -1 24
-13 28 -23 6 -15 -11 4 -13 2 -10 -9 4 -8 14 -14 23 -13 17 1 19 -17 9 -87 -2
-15 0 -30 5 -33 5 -3 7 -13 4 -21 -5 -11 -2 -13 10 -9 8 3 18 6 20 6 2 0 4 5
4 11 0 5 -4 7 -10 4 -10 -6 -12 0 -12 35 0 36 2 41 13 34 6 -3 7 -9 3 -13 -15
-10 -13 -39 3 -45 11 -5 13 0 8 17 -6 21 -5 21 8 -2 8 -14 17 -19 21 -13 3 6
2 12 -3 14 -5 1 -11 10 -13 18 -2 8 -10 22 -18 30 -8 8 -16 22 -18 30 -4 19
-50 80 -61 80 -4 0 -12 -5 -19 -12z"/>
<path d="M3275 2760 c-3 -5 -1 -10 4 -10 6 0 11 5 11 10 0 6 -2 10 -4 10 -3 0
-8 -4 -11 -10z"/>
<path d="M3510 2760 c0 -5 6 -10 14 -10 24 0 28 -32 7 -54 -11 -12 -20 -25
-20 -31 -1 -5 -10 -10 -20 -11 -24 -1 -37 27 -19 41 12 9 21 45 12 45 -2 0
-10 -13 -19 -30 -9 -16 -21 -30 -28 -29 -9 0 -9 2 1 6 14 5 16 23 3 23 -5 0
-13 -10 -16 -21 -5 -16 -9 -18 -15 -8 -7 10 -12 10 -23 1 -7 -7 -18 -8 -22 -4
-5 4 -5 2 -2 -5 4 -6 4 -13 0 -16 -5 -2 -1 -2 7 1 37 11 80 9 91 -4 6 -7 16
-11 23 -7 6 4 5 -1 -3 -10 -18 -23 -2 -21 27 3 14 11 20 24 16 31 -4 7 -3 9 3
6 6 -4 16 7 23 24 9 21 15 27 21 17 4 -7 12 -9 16 -4 4 5 2 11 -6 14 -7 2 -22
13 -32 23 -21 21 -39 25 -39 9z"/>
<path d="M4030 2760 c0 -5 5 -10 10 -10 6 0 10 5 10 10 0 6 -4 10 -10 10 -5 0
-10 -4 -10 -10z"/>
<path d="M3436 2741 c-3 -5 1 -14 9 -21 10 -9 15 -9 15 -1 0 6 -5 11 -11 11
-5 0 -7 5 -4 10 3 6 4 10 1 10 -3 0 -7 -4 -10 -9z"/>
<path d="M3829 2743 c-7 -51 -5 -74 9 -85 12 -10 14 -10 8 -1 -4 8 -2 11 6 8
16 -6 45 11 35 21 -3 4 -13 1 -21 -5 -15 -13 -32 1 -21 18 3 5 0 13 -6 17 -8
5 -8 9 1 14 9 5 9 9 1 14 -6 4 -11 4 -12 -1z"/>
<path d="M3916 2742 c-3 -6 -1 -12 6 -14 13 -5 12 -6 -34 -59 -33 -38 -86 -22
-73 21 2 8 0 22 -6 30 -9 13 -10 12 -5 -3 3 -9 1 -28 -3 -40 -6 -14 -6 -30 0
-38 7 -12 9 -12 9 0 0 11 3 11 16 1 17 -15 67 -23 59 -10 -6 9 21 40 34 40 5
0 14 -7 21 -15 7 -8 17 -12 24 -8 6 4 5 -1 -3 -10 -7 -9 -9 -17 -3 -17 5 0 15
7 22 15 7 9 19 14 27 11 11 -4 11 -1 3 14 -12 22 -21 26 -17 8 1 -7 -8 -13
-20 -14 -22 -1 -49 39 -38 57 4 5 2 16 -3 25 -6 10 -12 13 -16 6z"/>
<path d="M4182 2741 c-8 -4 -36 -7 -63 -6 -32 2 -53 -2 -60 -11 -7 -9 -8 -14
-1 -14 6 0 12 3 15 8 2 4 2 2 1 -5 -2 -6 4 -14 13 -17 11 -5 14 -2 9 11 -4 10
-4 14 0 10 4 -4 14 -1 23 6 14 11 14 10 2 -5 -15 -20 -2 -25 17 -6 9 9 12 9
12 -2 1 -11 5 -9 17 5 14 18 15 18 9 2 -4 -13 -2 -17 6 -14 7 2 12 13 11 23
-1 18 -1 18 14 -1 14 -17 15 -18 9 -2 -3 10 -6 21 -6 23 0 7 -14 4 -28 -5z"/>
<path d="M3600 2719 c-8 -13 -17 -18 -28 -14 -9 3 -13 3 -10 -1 7 -6 1 -16
-45 -65 -18 -20 -33 -28 -46 -24 -12 3 -18 0 -18 -10 0 -11 7 -14 21 -9 12 3
16 2 10 -3 -7 -5 -4 -14 8 -26 18 -17 19 -17 15 10 -5 34 8 54 31 46 13 -4 14
-3 3 5 -8 6 -9 12 -3 16 6 3 12 0 15 -6 6 -16 43 4 40 21 -2 6 -4 17 -5 24 -2
6 5 11 15 11 13 -2 16 3 12 20 -5 18 -5 19 5 4 16 -25 33 -23 20 2 -14 26 -26
25 -40 -1z m-27 -54 c4 -8 1 -17 -5 -21 -7 -4 -8 -3 -4 4 4 7 2 12 -4 12 -6 0
-8 5 -5 10 8 14 12 13 18 -5z"/>
<path d="M4027 2721 c-2 -10 -3 -35 -2 -55 3 -32 1 -36 -16 -31 -13 4 -21 1
-25 -10 -5 -11 -14 -15 -29 -11 -15 4 -22 1 -22 -9 0 -11 7 -13 21 -9 12 3 16
2 10 -3 -7 -5 -4 -14 9 -26 18 -18 18 -18 14 12 -6 33 3 43 41 47 35 4 55 23
41 41 -7 7 -9 16 -5 20 3 3 6 1 6 -5 0 -7 6 -11 13 -9 7 1 11 -6 9 -16 -3 -15
0 -16 17 -5 15 9 17 15 8 21 -7 5 -4 6 9 3 14 -5 21 -2 21 9 0 17 -3 17 -32 6
-27 -11 -76 14 -69 34 4 8 2 15 -4 15 -5 0 -12 -8 -15 -19z m18 -21 c3 -5 1
-10 -4 -10 -6 0 -11 5 -11 10 0 6 2 10 4 10 3 0 8 -4 11 -10z m8 -35 c4 -8 1
-17 -5 -21 -7 -4 -8 -3 -4 4 4 7 2 12 -4 12 -6 0 -8 5 -5 10 8 14 12 13 18 -5z"/>
<path d="M3670 2715 c0 -15 -43 -31 -70 -26 -10 2 -9 -3 5 -14 11 -9 14 -13 6
-9 -9 4 -12 3 -7 -4 11 -17 -26 -47 -57 -47 -33 1 -44 -10 -21 -19 9 -4 23 -1
30 5 11 9 14 8 14 -2 0 -9 3 -10 8 -4 4 6 14 10 22 10 8 0 15 8 15 18 0 10 8
25 18 32 14 10 15 14 5 19 -7 3 -2 3 11 0 16 -4 21 -2 17 5 -4 7 -1 9 7 5 18
-7 29 9 21 30 -8 20 -24 21 -24 1z m20 -15 c0 -5 -5 -10 -11 -10 -5 0 -7 5 -4
10 3 6 8 10 11 10 2 0 4 -4 4 -10z"/>
<path d="M4222 2705 c-16 -35 -15 -40 6 -24 15 13 16 12 4 -3 -8 -9 -10 -23
-6 -29 4 -8 3 -9 -4 -5 -7 4 -12 1 -12 -8 0 -9 -6 -16 -12 -16 -9 0 -8 -4 2
-11 12 -8 11 -9 -6 -5 -14 5 -21 2 -21 -9 0 -17 3 -17 31 -6 11 4 21 14 22 22
8 41 14 62 19 67 2 3 0 11 -6 19 -9 9 -8 13 0 13 6 0 11 5 11 10 0 19 -17 10
-28 -15z"/>
<path d="M4190 2695 c-10 -12 -10 -18 1 -32 13 -16 12 -17 -3 -4 -21 15 -24 2
-5 -18 10 -11 8 -11 -10 0 -15 9 -19 17 -13 23 13 13 13 39 0 31 -6 -4 -8 -10
-5 -15 7 -11 -54 -45 -73 -42 -7 2 -15 -3 -18 -11 -3 -8 -17 -13 -35 -12 -33
2 -47 -10 -23 -19 9 -4 22 -2 29 4 9 8 15 7 18 -2 4 -11 6 -10 6 0 1 7 6 10
12 6 7 -4 20 4 31 17 10 13 16 17 12 8 -3 -10 0 -20 6 -24 9 -6 9 -10 -1 -16
-11 -7 -11 -9 -1 -9 10 0 10 -5 2 -20 -7 -13 -7 -20 -1 -20 6 0 15 9 21 20 6
11 7 20 3 20 -5 0 -8 15 -9 34 0 30 2 33 17 23 11 -7 15 -16 10 -22 -5 -5 -9
-24 -9 -40 0 -23 4 -31 19 -32 17 -2 17 1 5 20 -17 29 -15 38 12 65 24 24 28
37 11 48 -8 4 -7 9 2 15 7 4 11 11 8 14 -4 3 -12 -1 -19 -10z"/>
<path d="M3646 2653 c-14 -7 -23 -19 -20 -27 8 -21 -24 -39 -73 -40 -25 0 -41
-2 -35 -4 8 -2 9 -9 2 -21 -5 -10 -6 -21 -3 -25 3 -3 1 -6 -5 -6 -7 0 -12 -4
-12 -9 0 -6 9 -9 19 -8 15 1 19 7 16 30 -3 25 -2 27 13 15 14 -11 15 -10 9 7
-7 19 -6 19 7 3 14 -19 32 -25 21 -9 -11 19 18 24 32 5 14 -19 15 -19 13 1 -4
35 0 46 11 39 8 -4 7 -9 -2 -15 -11 -7 -11 -9 -1 -9 10 0 10 -5 2 -20 -7 -13
-7 -20 -1 -20 6 0 15 9 21 20 6 11 7 20 3 20 -5 0 -8 16 -9 35 0 27 2 32 13
24 10 -9 18 -8 31 2 16 13 16 13 2 -5 -14 -18 -13 -19 3 -13 11 4 16 3 12 -3
-3 -6 -1 -10 4 -10 6 0 11 -5 11 -11 0 -8 -5 -8 -15 1 -20 17 -19 1 2 -24 10
-12 11 -15 3 -8 -20 17 -35 15 -20 -3 7 -9 20 -13 29 -10 12 4 12 2 -2 -9 -14
-11 -15 -15 -5 -20 7 -3 4 -4 -8 -1 -14 4 -21 0 -21 -10 0 -17 3 -17 32 -6 11
5 21 13 21 20 1 6 2 16 3 22 0 5 7 7 14 3 7 -4 9 -3 4 2 -5 5 -14 9 -20 9 -7
0 -11 9 -10 20 1 10 -5 31 -13 46 -11 21 -11 28 -1 32 6 2 -2 4 -19 4 -18 0
-43 -6 -58 -14z"/>
<path d="M3419 2643 c-13 -16 -12 -17 4 -4 15 12 17 12 11 -3 -3 -9 -1 -16 5
-16 6 0 11 5 11 11 0 5 6 7 13 3 8 -5 8 -2 -2 9 -17 21 -25 21 -42 0z"/>
<path d="M3899 2643 c-13 -16 -12 -17 4 -4 15 12 17 12 11 -3 -3 -9 -1 -16 5
-16 6 0 11 5 11 11 0 5 6 7 13 3 8 -5 8 -2 -2 9 -17 21 -25 21 -42 0z"/>
<path d="M3667 2612 c1 -8 3 -18 3 -23 0 -5 5 -9 10 -9 6 0 10 9 10 21 0 11
-4 18 -9 15 -5 -4 -11 -3 -14 1 -2 5 -2 2 0 -5z"/>
<path d="M3345 2612 c-10 -10 -5 -23 7 -16 17 10 68 12 68 3 0 -5 7 -6 15 -2
9 3 13 8 10 11 -7 7 -93 11 -100 4z"/>
<path d="M3825 2612 c-10 -10 -5 -23 7 -16 17 10 68 12 68 3 0 -5 7 -6 15 -2
9 3 13 8 10 11 -7 7 -93 11 -100 4z"/>
<path d="M4231 2615 c2 -5 -2 -20 -9 -31 -10 -19 -9 -21 11 -20 14 1 21 -4 19
-12 -1 -8 3 -12 10 -9 7 2 12 10 10 16 -1 7 2 10 7 7 5 -4 15 2 21 11 10 17
10 17 8 -1 -2 -10 2 -21 9 -23 8 -3 11 3 8 17 -3 17 -1 20 13 15 14 -5 14 -4
5 6 -19 19 -42 19 -48 -1 -5 -16 -15 -18 -60 -11 -5 1 -3 6 5 11 12 8 13 11 2
22 -8 7 -12 9 -11 3z"/>
<path d="M4082 2595 c-12 -6 -39 -11 -60 -10 -20 2 -31 1 -25 -2 9 -3 10 -10
3 -22 -5 -10 -6 -21 -3 -25 3 -3 1 -6 -5 -6 -7 0 -12 -4 -12 -9 0 -6 9 -9 19
-8 15 1 19 7 16 29 -2 16 0 26 5 23 5 -3 7 -13 4 -23 -5 -15 -5 -15 6 1 6 9 8
23 5 30 -4 6 0 4 8 -5 17 -21 28 -23 25 -5 -2 6 3 12 11 12 8 0 15 -6 17 -13
1 -7 0 -8 -3 -2 -7 15 -20 12 -20 -5 0 -8 6 -16 13 -19 8 -3 11 -15 8 -30 -2
-14 0 -28 6 -31 5 -3 10 1 10 9 0 9 6 16 13 16 8 0 7 4 -3 11 -12 8 -10 9 9 4
18 -6 22 -4 15 6 -6 10 -3 10 11 -1 15 -12 17 -12 10 -1 -5 10 -4 12 4 7 6 -4
9 -12 6 -17 -7 -11 2 -11 29 0 11 4 21 18 23 31 3 20 1 21 -12 10 -9 -7 -38
-14 -64 -16 l-49 -2 4 39 c2 21 3 39 1 38 -1 -1 -12 -7 -25 -14z"/>
<path d="M3348 2584 c-16 -8 -28 -17 -28 -20 0 -3 4 -3 9 1 5 3 12 1 16 -5 3
-5 11 -10 17 -10 6 0 5 7 -3 17 -8 9 -9 14 -2 10 6 -4 14 -1 16 5 4 10 6 10 6
1 1 -7 7 -10 15 -7 8 3 17 0 21 -6 5 -8 11 -7 23 2 10 8 13 9 9 1 -4 -6 -3
-14 3 -18 5 -3 10 -1 10 6 0 8 4 8 15 -1 12 -10 13 -16 3 -27 -9 -11 -9 -16 3
-24 9 -6 10 -9 2 -9 -7 0 -10 -7 -6 -16 13 -34 24 28 14 77 -1 9 -30 21 -58
24 -11 2 -29 5 -40 9 -10 3 -30 -2 -45 -10z"/>
<path d="M3830 2585 c-14 -7 -25 -17 -25 -22 -1 -20 -18 -33 -38 -28 -12 2
-16 2 -9 -1 10 -5 9 -9 -4 -18 -17 -13 -12 -36 8 -36 7 0 7 4 -1 13 -8 11 -3
13 24 13 19 -1 35 -3 35 -6 0 -3 9 -6 20 -6 11 0 19 5 17 11 -2 5 -12 9 -21 9
-9 -1 -16 3 -16 10 0 6 -4 6 -9 -3 -5 -8 -11 -9 -15 -3 -10 16 20 21 47 7 23
-12 25 -11 25 11 0 20 -3 22 -15 13 -11 -10 -17 -9 -29 4 -8 9 -9 12 -2 7 20
-16 32 -11 17 7 -8 9 -9 14 -2 10 6 -4 14 -1 16 5 4 10 6 10 6 1 1 -7 7 -10
15 -7 8 3 17 0 21 -6 5 -8 11 -7 23 2 10 8 13 9 9 1 -4 -6 -3 -14 3 -18 5 -3
10 -1 10 5 0 6 5 8 11 5 13 -9 6 -16 -18 -19 -10 -2 -19 -11 -21 -22 -3 -16
-1 -17 8 -4 9 12 10 11 5 -8 -4 -12 -3 -22 2 -21 23 4 35 -2 29 -17 -3 -8 -2
-13 3 -9 5 3 11 -1 13 -7 4 -11 3 83 -1 103 -1 9 -30 21 -58 24 -11 2 -29 6
-40 9 -10 3 -29 -1 -43 -9z m130 -55 c-13 -9 -13 -11 0 -20 9 -6 10 -10 3 -10
-15 0 -26 17 -18 30 3 6 12 10 18 10 7 0 6 -4 -3 -10z"/>
<path d="M4187 2574 c-8 -8 1 -24 12 -24 4 0 8 7 8 15 0 16 -9 20 -20 9z"/>
<path d="M3282 2556 c9 -10 31 -20 49 -22 42 -5 61 -22 54 -48 -5 -17 -4 -18
4 -6 8 11 11 12 11 2 0 -7 4 -11 8 -8 5 3 8 19 7 35 -1 17 4 32 11 35 8 3 10
-3 7 -17 -4 -18 -3 -19 7 -7 9 12 10 11 5 -7 -5 -18 -3 -22 9 -17 9 3 13 10
10 15 -3 6 0 17 8 26 11 14 11 16 -4 11 -9 -4 -19 -4 -23 0 -4 4 -11 8 -16 8
-5 1 -10 3 -11 4 -7 7 -47 6 -43 -1 9 -13 -15 -21 -29 -10 -9 7 -16 7 -26 -2
-9 -8 -11 -9 -6 0 3 6 2 14 -4 18 -5 3 -10 1 -10 -6 0 -8 -5 -8 -17 2 -17 12
-17 12 -1 -5z m117 -17 c-11 -7 -11 -9 -1 -9 7 0 10 -5 6 -11 -4 -8 -9 -7 -14
2 -10 16 -1 41 12 33 6 -4 5 -10 -3 -15z"/>
<path d="M3593 2558 c1 -7 -6 -12 -16 -12 -14 2 -16 -3 -11 -20 4 -11 7 -29 6
-39 -1 -15 2 -16 14 -6 11 9 12 15 3 26 -9 10 -9 17 -1 25 15 15 36 0 23 -16
-8 -9 -6 -18 4 -32 15 -18 16 -18 13 6 -3 21 1 25 19 23 13 -2 22 1 22 5 -3
19 2 32 12 32 8 0 8 -4 2 -12 -6 -7 -9 -21 -8 -30 2 -12 -2 -15 -13 -10 -15 5
-15 4 -3 -11 18 -22 32 -12 27 19 -3 14 1 27 10 32 13 7 13 10 -1 22 -14 11
-18 10 -31 -8 -19 -27 -41 -28 -49 -2 -7 22 -27 28 -22 8z"/>
<path d="M3879 2556 c9 -11 9 -15 -1 -19 -11 -4 -11 -6 0 -6 10 -1 10 -6 -2
-23 -9 -12 -16 -27 -16 -33 0 -5 5 -3 10 5 7 11 10 11 10 2 0 -7 4 -11 10 -7
5 3 7 13 4 23 -5 14 -4 14 4 2 8 -10 8 -18 0 -27 -7 -9 -7 -13 0 -13 20 0 23
19 9 47 -13 24 -13 29 2 41 9 7 11 11 4 8 -6 -4 -14 -2 -18 4 -3 5 -11 10 -17
10 -7 0 -7 -5 1 -14z"/>
<path d="M4335 2561 c9 -15 -14 -24 -29 -12 -10 8 -17 7 -26 -4 -7 -9 -22 -13
-34 -10 -12 3 -15 2 -8 -1 10 -5 9 -9 -4 -18 -17 -13 -12 -36 8 -36 7 0 7 4
-1 13 -8 11 -3 13 24 13 19 -1 35 -4 35 -9 0 -4 5 -5 12 -1 6 4 17 -1 25 -11
16 -22 17 -12 2 16 -6 12 -17 18 -25 15 -8 -3 -14 0 -14 7 0 8 -3 8 -9 -2 -5
-8 -11 -9 -15 -3 -11 18 20 21 53 5 17 -9 29 -18 26 -21 -2 -3 0 -11 6 -19 12
-14 3 -17 -34 -13 -18 1 -18 1 0 -17 15 -15 20 -16 31 -6 7 7 19 13 25 12 8 0
8 -2 -1 -6 -6 -2 -10 -9 -6 -14 3 -5 0 -8 -7 -7 -6 2 -13 -2 -16 -8 -2 -6 3
-11 12 -11 8 0 15 4 15 9 0 5 4 7 8 4 10 -6 9 25 -2 42 -4 6 -4 17 0 24 4 7 3
8 -4 4 -12 -7 -16 5 -13 32 1 6 -3 12 -9 12 -6 0 -8 -5 -4 -12 4 -7 3 -8 -4
-4 -9 5 -9 13 -2 27 9 15 7 19 -5 19 -9 0 -14 -4 -10 -9z"/>
<path d="M3544 2520 c2 -19 5 -42 7 -50 5 -17 -38 -23 -48 -7 -3 6 -1 7 4 4 6
-4 16 0 23 8 9 11 9 15 1 15 -7 0 -9 5 -6 10 13 21 -5 9 -20 -14 -19 -29 -11
-53 18 -51 12 1 28 -7 35 -17 11 -15 17 -16 27 -8 8 7 18 9 23 6 5 -3 9 9 8
27 -2 33 -25 45 -34 17 -5 -13 -3 -13 14 0 18 14 18 14 5 -2 -7 -10 -10 -18
-5 -18 5 0 2 -4 -6 -9 -21 -14 -29 -5 -26 34 2 19 -1 35 -6 35 -5 0 -6 4 -3
10 3 5 2 18 -4 27 -7 14 -9 10 -7 -17z"/>
<path d="M4045 2540 c3 -5 2 -10 -3 -10 -13 0 -23 -27 -16 -45 8 -20 28 -19
45 1 21 25 19 41 -8 53 -15 7 -22 7 -18 1z m29 -26 c3 -8 2 -12 -4 -9 -6 3
-10 10 -10 16 0 14 7 11 14 -7z m-21 -9 c4 -8 1 -17 -5 -21 -7 -4 -8 -3 -4 4
4 7 2 12 -4 12 -6 0 -8 5 -5 10 8 14 12 13 18 -5z"/>
<path d="M3590 2519 c0 -5 5 -7 10 -4 6 3 10 8 10 11 0 2 -4 4 -10 4 -5 0 -10
-5 -10 -11z"/>
<path d="M3424 2498 c5 -18 -11 -35 -31 -32 -7 1 -21 2 -30 3 -16 1 -16 3 -3
12 13 9 13 10 0 6 -8 -2 -14 -10 -12 -16 1 -7 -3 -21 -9 -33 -10 -18 -9 -20 6
-15 9 4 19 7 21 7 2 0 4 5 4 11 0 5 -5 7 -12 3 -7 -5 -8 -3 -3 6 6 10 11 9 21
-4 9 -13 13 -14 18 -4 3 7 4 4 1 -8 -4 -14 0 -21 10 -21 10 0 13 6 9 19 -4 12
1 24 11 32 15 11 16 16 6 32 -9 14 -11 15 -7 2z"/>
<path d="M3994 2499 c-5 -8 -9 -26 -10 -40 -1 -20 3 -25 20 -24 11 1 27 -7 34
-17 11 -15 17 -16 27 -8 8 7 18 9 24 6 5 -3 12 1 15 10 9 24 8 24 -21 9 -28
-15 -44 -12 -42 8 0 9 2 8 6 -1 3 -9 9 -7 21 6 10 10 13 12 8 5 -5 -8 -4 -13
2 -13 18 0 25 21 12 33 -9 9 -14 8 -24 -5 -8 -11 -17 -14 -27 -7 -8 5 -18 9
-24 9 -5 0 -3 -5 5 -10 8 -5 10 -10 4 -10 -17 0 -25 12 -14 24 5 7 5 18 1 25
-7 11 -10 11 -17 0z"/>
<path d="M4131 2491 c-23 -23 -26 -37 -11 -46 5 -3 2 -14 -7 -25 -9 -10 -20
-17 -25 -14 -11 7 -38 -14 -38 -29 0 -5 8 -3 18 5 9 9 25 14 35 13 9 -2 15 1
12 6 -4 5 0 6 8 3 8 -3 18 -1 22 5 3 6 1 11 -5 11 -6 0 -8 5 -5 10 4 6 1 19
-7 28 -12 15 -11 16 5 3 20 -15 23 -2 5 19 -11 12 -10 12 4 2 19 -15 37 3 20
20 -7 7 -17 3 -31 -11z"/>
<path d="M3692 2477 c-27 -29 -28 -52 -3 -54 13 -1 18 3 14 13 -3 7 -10 11
-16 7 -6 -3 -7 -1 -3 5 4 6 13 9 21 6 8 -4 12 -10 9 -15 -3 -5 -1 -9 4 -9 6 0
13 7 16 16 8 21 8 26 -2 20 -4 -2 -14 -1 -21 3 -9 6 -10 11 -2 15 6 4 11 2 11
-4 0 -6 4 -9 9 -5 6 3 14 -3 20 -12 9 -16 12 -16 21 -3 7 11 10 11 10 2 0 -7
5 -10 10 -7 6 4 18 1 27 -7 15 -11 16 -11 10 4 -4 11 0 21 11 27 15 9 15 10
-3 9 -11 -1 -31 2 -45 6 l-25 7 25 -15 24 -14 -32 2 c-17 1 -37 7 -44 14 -17
17 -21 15 -46 -11z"/>
<path d="M4174 2479 c-10 -11 -19 -30 -19 -43 -1 -12 -5 -28 -10 -36 -6 -9 -4
-11 5 -5 8 5 11 4 7 -2 -4 -6 -18 -9 -33 -7 -19 2 -24 -1 -20 -13 3 -8 6 -17
6 -19 0 -2 5 -4 11 -4 5 0 7 5 4 10 -3 6 -1 10 5 10 7 0 9 -7 6 -16 -3 -9 -1
-14 5 -12 6 2 11 8 11 13 0 6 4 15 9 21 5 6 7 20 4 32 -2 15 0 19 11 15 10 -4
12 0 8 11 -3 9 -11 13 -17 9 -6 -3 -7 -1 -3 5 4 6 13 9 21 6 8 -4 12 -10 9
-15 -3 -5 -1 -9 4 -9 6 0 13 7 16 16 8 21 8 26 -2 20 -4 -2 -14 -1 -21 3 -9 6
-10 11 -2 15 6 4 11 2 11 -4 0 -6 4 -9 9 -5 6 3 14 -3 20 -12 9 -16 12 -16 21
-3 7 11 10 11 10 2 0 -7 5 -10 10 -7 6 4 18 1 27 -7 15 -11 16 -11 10 4 -4 11
0 21 11 27 15 9 15 10 -3 9 -11 -1 -31 2 -45 6 l-25 7 25 -15 24 -14 -32 2
c-17 1 -37 7 -44 14 -16 16 -22 15 -44 -9z"/>
<path d="M3436 2464 c-14 -21 -16 -28 -6 -37 10 -9 11 -9 6 1 -4 6 -2 12 3 12
6 0 10 5 9 11 -2 6 4 14 12 16 13 4 13 3 0 -6 -8 -6 -11 -11 -7 -11 4 0 3 -8
-2 -18 -12 -22 3 -42 30 -42 13 0 16 7 14 26 -1 15 -8 30 -15 34 -6 4 -11 10
-11 14 5 34 -8 34 -33 0z m46 -42 c-7 -2 -9 -9 -6 -14 4 -7 2 -8 -4 -4 -6 4
-9 13 -6 21 4 8 11 12 17 8 8 -5 7 -8 -1 -11z"/>
<path d="M3634 2468 c-5 -13 -9 -33 -9 -45 -1 -18 2 -20 15 -10 13 11 13 10 1
-5 -13 -17 -2 -26 13 -11 12 13 35 11 30 -2 -3 -7 0 -16 7 -21 9 -5 10 -2 6
10 -4 9 -3 15 2 11 5 -3 12 1 15 7 3 7 4 4 3 -7 -1 -11 -10 -26 -20 -33 -14
-11 -15 -17 -7 -27 7 -8 9 -18 6 -23 -3 -5 8 -9 24 -9 24 0 27 3 19 14 -6 7
-15 11 -19 8 -4 -3 -10 2 -14 10 -7 19 7 27 31 18 15 -6 16 -4 6 8 -22 28 -3
73 28 64 13 -5 17 -2 14 7 -3 8 -14 14 -25 14 -10 0 -17 -3 -15 -7 6 -10 -40
-28 -61 -24 -11 2 -23 4 -27 4 -5 1 -5 6 -2 11 4 6 1 18 -6 26 -10 12 -9 13 7
7 17 -6 17 -5 5 10 -17 22 -18 21 -27 -5z m11 -28 c3 -5 1 -10 -4 -10 -6 0
-11 5 -11 10 0 6 2 10 4 10 3 0 8 -4 11 -10z"/>
<path d="M3917 2464 c-10 -13 -15 -29 -12 -34 10 -16 27 0 20 19 -5 12 -4 13
6 4 9 -9 9 -16 1 -26 -14 -16 2 -37 29 -37 15 0 17 14 10 52 0 4 -11 10 -22
13 -15 5 -18 9 -9 15 7 4 8 10 4 13 -5 3 -17 -6 -27 -19z m45 -42 c-7 -2 -9
-9 -6 -14 4 -7 2 -8 -4 -4 -6 4 -9 13 -6 21 4 8 11 12 17 8 8 -5 7 -8 -1 -11z"/>
<path d="M3848 2452 c11 -12 20 -15 25 -8 5 6 5 0 1 -14 -3 -14 -3 -22 1 -18
13 12 34 -12 28 -30 -6 -15 -5 -16 13 -2 18 14 18 14 5 -2 -8 -11 -9 -18 -3
-18 22 0 24 24 4 41 -12 9 -26 28 -31 41 -6 15 -18 24 -35 26 -25 2 -25 1 -8
-16z"/>
<path d="M3306 2434 c-3 -8 -2 -23 3 -32 4 -9 6 -22 4 -29 -2 -6 0 -14 5 -17
5 -3 9 11 10 30 1 20 -3 32 -8 29 -6 -3 -10 -1 -10 4 0 6 5 11 10 11 6 0 10 5
10 10 0 16 -17 12 -24 -6z"/>
<path d="M3790 2441 c0 -11 26 -21 43 -17 6 1 9 1 4 -1 -4 -3 -5 -8 -3 -12 3
-4 -1 -8 -9 -8 -8 0 -15 4 -15 9 0 4 -4 8 -9 8 -6 0 -9 -9 -8 -19 1 -14 8 -18
25 -17 13 2 27 9 32 16 5 9 9 9 14 1 4 -6 12 -8 18 -5 7 4 8 2 4 -4 -4 -6 -13
-9 -21 -6 -12 5 -12 1 1 -25 21 -42 26 -43 67 -15 20 14 37 20 37 14 0 -5 5
-10 11 -10 5 0 7 6 3 13 -5 8 -2 8 9 -2 10 -8 17 -9 17 -3 0 6 -5 14 -10 17
-8 5 -8 11 -1 19 6 7 10 15 8 17 -1 2 3 -1 9 -8 6 -7 15 -9 19 -5 5 4 5 2 1
-5 -4 -7 -14 -9 -22 -6 -14 5 -14 3 -3 -15 10 -16 16 -18 22 -9 5 7 6 4 3 -9
-5 -15 -2 -21 9 -21 11 0 14 6 9 16 -4 9 -7 24 -8 35 0 19 -42 53 -52 43 -5
-5 -11 -28 -13 -50 -1 -5 -6 -5 -12 -2 -5 4 -18 0 -27 -8 -24 -21 -54 -25 -59
-7 -4 13 -3 13 6 0 8 -11 9 -8 7 15 -2 17 -9 29 -15 27 -6 -1 -16 9 -23 23 -8
18 -14 22 -24 14 -8 -7 -14 -7 -19 1 -8 12 -25 13 -25 1z"/>
<path d="M4226 2439 c2 -4 -10 -12 -26 -19 -24 -10 -28 -15 -19 -26 6 -8 16
-14 21 -14 6 0 4 8 -3 17 -8 9 -9 14 -3 10 7 -4 17 0 24 8 7 9 21 13 31 10 13
-5 17 -2 14 7 -3 8 -14 14 -25 14 -10 0 -17 -3 -14 -7z"/>
<path d="M4270 2441 c0 -13 27 -21 48 -15 14 5 14 4 2 -5 -8 -5 -15 -25 -16
-43 -2 -30 -1 -31 12 -13 10 13 11 22 3 32 -8 9 -8 13 0 13 11 0 13 -7 14 -48
0 -16 4 -21 14 -18 8 4 17 6 19 6 2 0 4 5 4 11 0 5 -4 7 -10 4 -5 -3 -10 -1
-10 5 0 7 7 10 15 6 17 -6 19 2 5 24 -9 13 -10 13 -10 0 -1 -8 -9 0 -18 18
-13 23 -21 29 -29 21 -8 -8 -13 -8 -17 0 -9 13 -26 15 -26 2z"/>
<path d="M3356 2417 c-12 -9 -16 -19 -11 -27 6 -10 11 -9 21 4 7 10 15 13 18
7 4 -5 15 -8 26 -6 14 3 17 -1 13 -13 -6 -15 -5 -16 13 -2 18 14 18 14 5 -2
-8 -11 -9 -18 -3 -18 18 0 24 20 12 35 -7 9 -23 13 -36 11 -14 -3 -27 1 -32
10 -7 12 -11 12 -26 1z"/>
<path d="M3509 2420 c-1 -5 -3 -14 -4 -20 -1 -5 -3 -15 -4 -21 0 -5 -6 -7 -12
-4 -5 4 -18 0 -27 -8 -24 -21 -54 -25 -59 -7 -4 13 -3 13 6 0 6 -8 11 -10 11
-5 0 26 -42 46 -55 26 -3 -6 -13 -7 -22 -4 -15 6 -14 1 4 -30 14 -23 18 -37
10 -40 -7 -2 -8 -5 0 -10 5 -3 15 5 22 20 10 22 9 25 -4 19 -9 -3 -14 -2 -10
3 3 5 2 11 -2 14 -5 2 -2 2 6 0 8 -2 11 2 7 12 -3 9 -2 13 4 10 6 -3 10 -12
10 -19 0 -32 26 -36 63 -10 20 13 37 20 37 14 0 -5 5 -10 11 -10 5 0 7 5 3 12
-4 6 -3 8 4 4 6 -3 13 -2 17 4 3 5 2 10 -4 10 -5 0 -8 7 -7 15 3 21 12 28 14
10 1 -8 3 -22 4 -30 2 -17 7 -18 26 -6 11 7 11 9 -2 14 -9 4 -16 11 -16 17 0
6 7 4 16 -4 8 -9 18 -17 22 -17 4 -1 19 -3 34 -5 33 -3 72 -23 48 -24 -13 0
-13 -1 0 -11 11 -8 9 -9 -10 -3 -22 6 -24 5 -11 -10 8 -9 20 -15 27 -12 8 3
11 -2 9 -15 -2 -11 0 -17 5 -14 6 3 7 0 4 -8 -3 -8 0 -18 7 -23 9 -5 10 -2 6
10 -4 10 -3 15 3 11 6 -3 10 -1 10 4 0 6 5 11 11 11 8 0 8 -5 -1 -15 -16 -19
-2 -20 19 -1 9 8 25 16 36 18 15 2 20 -2 18 -17 -1 -14 4 -21 17 -22 16 -1 17
1 6 20 -25 48 -26 49 -49 34 -28 -17 -83 -16 -79 2 1 7 -2 19 -8 26 -7 9 -8
15 -1 20 7 4 7 12 -1 25 -9 14 -15 16 -25 8 -10 -8 -19 -6 -33 7 -15 14 -23
16 -32 7 -8 -8 -17 -6 -36 8 -27 22 -41 25 -43 10z"/>
<path d="M3749 2418 c-9 -32 -6 -49 11 -58 11 -6 20 -7 20 -2 0 11 51 9 69 -3
9 -5 12 -3 9 6 -3 10 -21 14 -56 13 -29 0 -52 3 -52 8 0 5 5 6 10 3 6 -3 10
-1 10 5 0 6 5 8 13 4 8 -5 8 -2 -2 9 -11 15 -29 23 -32 15z"/>
<path d="M4223 2409 c-6 -6 -9 -18 -6 -26 4 -11 -2 -13 -23 -11 -18 2 -28 -1
-27 -9 1 -6 -4 -16 -12 -23 -18 -15 -51 2 -60 31 -6 19 -9 20 -22 6 -16 -16
-9 -42 9 -31 14 9 29 -17 22 -38 -4 -13 -1 -16 10 -12 8 3 12 13 9 22 -4 15
-3 15 6 2 10 -13 12 -13 21 0 8 12 10 12 10 1 0 -11 3 -11 15 -1 11 9 13 15 5
20 -8 5 -6 9 5 14 24 9 32 7 15 -4 -10 -6 -11 -10 -2 -10 6 0 12 -7 12 -16 0
-8 5 -12 10 -9 6 3 8 17 6 31 -3 16 0 27 9 30 8 3 13 11 11 17 -1 7 -1 9 1 5
3 -5 9 -8 15 -8 6 0 6 6 -2 15 -15 18 -22 19 -37 4z"/>
<path d="M4274 2405 c4 -10 -3 -19 -18 -26 -26 -12 -28 -28 -7 -53 28 -34 49
-16 46 39 -4 52 -5 55 -16 55 -6 0 -8 -7 -5 -15z m12 -40 c0 -14 -5 -25 -9
-25 -5 0 -5 -5 -1 -12 4 -6 3 -8 -4 -4 -8 4 -8 15 0 36 12 37 16 38 14 5z
m-35 -18 c-10 -9 -11 -8 -5 6 3 10 9 15 12 12 3 -3 0 -11 -7 -18z"/>
<path d="M4385 2391 c4 -13 -1 -27 -15 -41 -22 -22 -47 -22 -42 -1 1 7 -2 10
-8 6 -6 -3 -8 -11 -5 -16 4 -5 1 -9 -6 -9 -7 0 -9 -3 -5 -7 3 -4 -3 -12 -16
-19 -18 -10 -24 -9 -34 5 -10 12 -15 13 -24 4 -13 -12 -6 -33 12 -33 6 0 7 5
2 13 -5 7 -2 5 8 -5 12 -13 18 -15 21 -6 4 9 6 10 6 1 2 -20 -14 -23 -43 -8
-25 13 -27 13 -22 -1 3 -9 6 -17 6 -20 0 -2 7 -1 15 2 9 4 18 -1 21 -11 6 -14
9 -12 24 10 10 15 20 26 24 26 19 -3 27 0 21 9 -3 5 -13 7 -23 4 -14 -5 -15
-4 -2 5 9 6 18 7 24 1 20 -20 28 -9 10 13 -19 22 -19 22 2 5 26 -23 41 -23 23
-1 -10 11 -10 14 -1 9 6 -4 12 -3 12 3 0 6 11 13 25 17 19 5 23 10 16 23 -4 9
-6 22 -4 29 3 6 -3 12 -12 12 -12 0 -15 -6 -10 -19z"/>
<path d="M3557 2359 c-9 -6 -21 -8 -26 -4 -5 3 -13 1 -16 -5 -4 -6 -14 -8 -24
-5 -22 7 -56 -18 -47 -33 4 -7 12 -12 18 -12 6 0 5 7 -3 18 -13 15 -12 16 4 3
9 -7 17 -10 17 -5 0 5 4 2 9 -6 14 -20 3 -32 -22 -24 -19 6 -20 5 -9 -9 7 -8
11 -20 10 -27 -2 -7 2 -14 9 -17 6 -2 10 4 9 14 -2 10 6 24 16 31 15 11 17 17
7 28 -10 12 -9 17 0 27 10 9 11 8 5 -8 -7 -19 -5 -18 18 3 17 15 31 20 43 16
13 -5 16 -4 10 5 -6 10 -3 11 14 2 15 -8 27 -9 39 -2 14 8 14 11 2 11 -8 1
-26 3 -40 5 -14 2 -33 -1 -43 -6z"/>
<path d="M3795 2351 c-11 -4 -35 -7 -53 -5 -19 1 -32 2 -30 1 1 -1 14 -11 27
-22 23 -19 24 -19 17 -1 -5 15 -4 17 8 7 10 -9 16 -9 21 -1 4 6 13 9 20 6 8
-3 16 0 19 7 3 9 5 8 5 -1 1 -7 5 -11 9 -8 5 3 9 -1 10 -9 1 -8 3 -22 4 -30 1
-11 7 -13 22 -8 12 3 29 6 39 5 15 -1 16 2 6 14 -9 10 -15 11 -25 3 -15 -12
-34 -4 -34 14 0 7 4 6 10 -3 5 -8 12 -11 16 -8 3 4 -9 16 -27 27 -37 23 -36
23 -64 12z"/>
<path d="M3933 2335 c-16 -12 -11 -35 9 -35 6 0 5 7 -3 18 -12 15 -12 16 2 5
9 -7 19 -10 22 -6 4 3 7 1 7 -5 0 -7 0 -15 0 -19 0 -5 -17 -8 -37 -9 -21 0
-47 -4 -58 -7 -11 -4 -27 -2 -35 3 -13 9 -13 10 0 10 12 0 12 2 2 9 -8 4 -13
11 -13 15 3 18 0 20 -9 6 -6 -10 -10 -11 -10 -2 0 6 -6 12 -12 12 -8 -1 -5 -8
7 -18 11 -9 20 -24 20 -32 0 -11 12 -15 50 -14 28 0 54 -4 58 -10 5 -7 7 -4 3
7 -3 11 -2 16 4 12 6 -3 8 -19 5 -35 -4 -22 -2 -28 8 -24 8 3 13 15 12 27 -1
12 7 28 17 36 14 9 17 16 9 24 -6 6 -11 16 -11 22 0 5 5 3 11 -5 9 -13 10 -12
5 3 -4 11 -2 16 5 12 6 -4 8 -13 5 -20 -2 -7 0 -17 6 -23 14 -14 0 -35 -19
-28 -9 4 -13 1 -10 -6 2 -7 11 -11 18 -9 8 2 20 4 27 4 8 0 10 8 6 21 -4 12
-8 30 -9 41 -1 11 -3 22 -4 25 -2 10 -72 6 -88 -5z"/>
<path d="M3535 2320 c-10 -11 -15 -20 -11 -20 4 0 -2 -12 -13 -26 -11 -15 -18
-30 -16 -34 8 -13 -13 -22 -27 -14 -18 11 -48 12 -54 2 -5 -8 -4 -9 31 -13 11
-1 30 -5 42 -9 18 -6 21 -3 19 18 -2 14 0 25 3 24 18 -2 24 3 13 11 -11 6 -10
10 1 19 11 9 13 3 11 -34 -2 -37 0 -43 11 -34 8 7 19 9 25 5 5 -3 10 -4 10 -1
0 2 3 13 6 23 6 15 4 16 -7 6 -16 -16 -29 -17 -29 -3 0 6 5 9 11 8 6 -2 14 3
16 10 3 8 -1 10 -11 6 -9 -3 -16 -1 -16 6 0 6 5 8 10 5 6 -3 10 -2 10 3 0 5
-9 13 -20 18 -20 9 -20 9 2 23 21 13 22 13 9 -2 -7 -10 -9 -17 -3 -17 12 0 23
26 15 34 -10 10 -19 7 -38 -14z"/>
<path d="M3587 2326 c-6 -14 0 -26 13 -26 3 0 6 9 7 20 2 23 -12 27 -20 6z"/>
<path d="M4073 2333 c-7 -3 -13 -9 -13 -15 0 -6 7 -7 16 -4 14 5 15 4 5 -7 -9
-11 -8 -17 4 -27 10 -9 15 -9 15 -1 0 6 -5 11 -11 11 -8 0 -7 5 1 15 14 17 3
35 -17 28z"/>
<path d="M4379 2323 c-7 -10 -9 -15 -4 -10 4 4 16 -4 25 -19 13 -20 19 -22 23
-11 3 9 -1 18 -9 21 -8 3 -14 11 -14 18 0 9 3 9 11 -2 9 -12 10 -12 7 -1 -6
22 -23 24 -39 4z"/>
<path d="M3382 2305 c-7 -14 -17 -25 -24 -25 -9 0 -8 -3 2 -10 8 -5 20 -10 25
-10 6 0 3 4 -4 9 -12 8 -8 11 15 17 16 5 36 7 43 5 13 -2 13 0 1 14 -9 11 -16
13 -24 5 -5 -5 -15 -10 -20 -10 -6 0 -5 4 3 9 7 5 9 11 4 14 -6 4 -15 -5 -21
-18z"/>
<path d="M3614 2318 c-4 -6 -3 -9 2 -6 5 3 15 0 22 -8 7 -8 8 -14 2 -14 -5 0
-10 -5 -10 -11 0 -6 7 -8 16 -5 9 3 12 2 9 -5 -4 -6 -13 -8 -19 -6 -8 3 -13
-5 -13 -23 0 -19 5 -26 13 -23 7 2 10 12 7 21 -4 14 -3 14 5 3 12 -16 4 -44
-9 -35 -5 3 -9 1 -9 -4 0 -6 7 -13 16 -16 21 -8 26 -8 20 2 -2 4 -1 14 4 22 5
8 4 23 -1 34 -10 21 -10 21 5 2 20 -25 20 -8 1 18 -8 10 -13 22 -11 25 2 3 -7
14 -19 24 -17 12 -26 14 -31 5z"/>
<path d="M4037 2318 c-2 -7 0 -23 4 -35 5 -13 6 -31 3 -40 -5 -15 -4 -16 5 -3
6 8 8 24 5 35 -4 16 -3 17 5 5 6 -8 8 -24 5 -35 -6 -18 -5 -19 11 -4 15 15 15
19 -8 53 -15 21 -27 31 -30 24z"/>
<path d="M4182 2318 c-19 -19 -14 -32 6 -17 15 13 16 12 3 -4 -12 -15 -11 -20
3 -36 16 -18 16 -21 -3 -54 -20 -35 -20 -36 0 -34 12 1 18 6 14 15 -7 19 3 32
20 26 8 -4 13 -10 10 -14 -3 -4 1 -13 9 -19 11 -9 13 -6 11 21 -4 48 -4 48
-16 48 -8 0 -7 -5 1 -15 11 -13 10 -14 -3 -9 -9 3 -19 14 -22 25 -4 10 -11 19
-17 19 -7 0 -6 5 2 14 16 20 0 52 -18 34z"/>
<path d="M4135 2299 c-20 -10 -60 -67 -57 -81 1 -5 -2 -8 -8 -8 -5 0 -10 -4
-10 -9 0 -6 9 -9 20 -8 12 1 18 7 16 14 -3 7 -3 20 1 29 5 13 8 13 15 2 8 -10
9 -10 5 2 -3 9 1 24 9 35 8 10 14 14 14 9 0 -6 -6 -16 -12 -22 -10 -10 -7 -12
12 -9 24 4 42 37 20 37 -6 0 -8 5 -5 10 7 12 6 12 -20 -1z"/>
<path d="M3582 2276 c6 -12 16 -24 22 -28 8 -6 8 -10 0 -15 -6 -5 -17 -19 -23
-31 -12 -22 -11 -23 7 -18 11 4 24 0 32 -9 7 -8 17 -12 24 -8 6 4 5 -1 -3 -10
-19 -24 2 -21 24 3 21 24 46 11 26 -13 -9 -11 -8 -17 6 -28 15 -12 16 -12 11
2 -4 9 0 28 7 43 11 20 11 26 2 25 -26 -3 -38 1 -31 12 4 8 9 7 15 -2 7 -12 9
-12 9 0 0 9 4 10 13 4 16 -14 48 -12 44 1 -2 6 -18 11 -35 11 -18 -1 -32 3
-32 7 0 4 5 8 12 8 6 0 23 10 37 23 15 13 20 15 12 4 -12 -16 -12 -20 3 -35
17 -16 18 -16 11 8 -4 16 -3 20 3 12 6 -9 9 -2 9 20 0 18 -2 28 -4 21 -3 -7
-11 -9 -19 -6 -7 3 -17 -2 -20 -11 -3 -9 -14 -16 -23 -16 -15 0 -58 -57 -53
-70 1 -3 -7 -6 -18 -6 -29 -2 -48 69 -29 107 6 12 2 16 -21 16 -26 0 -28 -2
-18 -21z"/>
<path d="M4329 2275 c-44 -23 -76 -66 -63 -86 3 -6 -1 -21 -10 -34 -15 -23
-14 -25 6 -40 12 -8 19 -15 15 -15 -4 0 0 -11 8 -24 16 -24 6 -44 -14 -31 -5
3 -8 -6 -7 -20 3 -26 16 -48 16 -27 0 22 3 27 22 40 15 11 22 11 33 2 16 -13
18 -10 9 14 -3 8 -12 12 -19 10 -21 -8 -39 34 -23 53 11 14 10 15 -9 9 -28 -9
-35 4 -18 37 8 15 10 27 4 27 -5 0 -9 5 -9 11 0 8 5 8 15 -1 18 -15 20 1 3 19
-11 10 -10 11 5 5 14 -5 16 -2 11 12 -5 16 -4 17 6 4 10 -13 11 -13 7 2 -3 9
0 19 7 21 10 4 12 -1 9 -14 -3 -11 0 -19 6 -19 7 0 9 5 6 10 -3 6 1 13 10 16
13 6 14 9 3 15 -9 7 -7 8 7 7 11 -2 21 1 23 7 6 17 -12 14 -59 -10z"/>
<path d="M3420 2281 c0 -6 -8 -8 -17 -5 -15 5 -16 4 -3 -5 8 -6 23 -8 33 -5 9
3 17 0 17 -6 0 -6 -4 -8 -10 -5 -5 3 -10 1 -10 -5 0 -14 22 -8 27 7 3 7 -5 17
-16 23 -14 7 -21 7 -21 1z"/>
<path d="M3995 2280 c-3 -5 -1 -10 4 -10 6 0 11 5 11 10 0 6 -2 10 -4 10 -3 0
-8 -4 -11 -10z"/>
<path d="M4370 2255 c-14 -7 -24 -17 -23 -22 2 -4 -5 -8 -15 -8 -28 0 -22 -47
7 -52 20 -3 22 -1 11 11 -14 18 -4 39 17 32 11 -5 13 -1 8 17 -7 21 -6 21 7 3
8 -10 20 -16 25 -13 6 4 10 -3 9 -16 -1 -12 -7 -21 -14 -19 -16 3 -16 -15 1
-22 6 -3 0 -3 -15 -1 -15 2 -29 -2 -31 -9 -4 -9 7 -12 34 -12 l38 1 -2 55 c-2
70 -13 80 -57 55z m40 -9 c0 -3 -4 -8 -10 -11 -5 -3 -10 -1 -10 4 0 6 5 11 10
11 6 0 10 -2 10 -4z"/>
<path d="M3344 2249 c-5 -8 2 -13 18 -11 3 1 9 -5 12 -13 3 -8 1 -14 -3 -12
-5 1 -8 -2 -7 -8 0 -5 3 -9 6 -8 40 14 44 14 30 4 -8 -6 -12 -11 -8 -11 3 0
14 -3 24 -7 12 -5 15 -3 9 6 -6 10 -3 11 11 4 21 -11 120 -11 130 0 12 12 -5
21 -18 10 -19 -14 -108 -4 -146 16 -25 13 -28 19 -9 17 6 0 13 3 15 9 3 12
-56 16 -64 4z"/>
<path d="M3829 2244 c-13 -16 29 -16 51 0 13 10 13 9 1 -6 -9 -12 -10 -18 -2
-18 6 0 11 4 11 8 0 5 7 9 15 9 8 0 12 -4 9 -9 -3 -4 -1 -8 5 -8 18 0 21 17 6
30 -11 9 -15 9 -15 1 0 -7 -5 -9 -12 -4 -20 12 -58 10 -69 -3z"/>
<path d="M4169 2258 c-1 -1 -3 -13 -4 -25 -2 -19 1 -21 17 -12 20 11 20 30 0
37 -7 2 -13 2 -13 0z"/>
<path d="M3787 2214 c-10 -20 -21 -34 -24 -31 -10 11 -45 -14 -39 -28 3 -8 0
-16 -7 -19 -9 -3 -8 -5 1 -5 8 -1 10 -6 5 -13 -4 -7 -8 -22 -8 -34 -1 -16 5
-21 26 -21 18 0 25 5 22 13 -3 8 -10 12 -16 11 -6 -1 -12 10 -12 26 -1 15 3
27 7 27 4 0 5 8 2 18 -5 15 -4 15 6 2 10 -13 11 -13 7 1 -4 12 1 15 19 13 19
-2 28 4 35 23 5 13 5 31 1 39 -6 11 -12 5 -25 -22z"/>
<path d="M3970 2244 c0 -5 9 -15 20 -22 21 -13 27 -32 10 -32 -5 0 -9 5 -7 11
4 19 -20 21 -37 4 -25 -25 -20 -32 22 -30 51 3 52 3 46 19 -3 8 -1 17 5 21 7
3 8 0 5 -9 -4 -10 -1 -16 7 -16 9 0 10 -3 4 -8 -20 -15 -7 -51 19 -52 5 0 4 6
-2 13 -5 6 -8 29 -7 49 2 21 0 37 -3 37 -22 -3 -32 2 -26 14 5 8 2 8 -9 -2
-14 -11 -20 -11 -32 -1 -8 7 -15 8 -15 4z m10 -44 c0 -5 -5 -10 -11 -10 -5 0
-7 5 -4 10 3 6 8 10 11 10 2 0 4 -4 4 -10z"/>
<path d="M4131 2236 c-7 -9 -8 -22 -3 -37 5 -13 7 -31 4 -39 -5 -13 -3 -13 12
-1 12 10 14 17 6 25 -5 5 -10 15 -10 21 0 5 5 2 11 -8 6 -9 14 -15 20 -12 13
8 11 26 -2 23 -6 -2 -13 5 -14 15 -5 26 -10 30 -24 13z"/>
<path d="M3830 2215 c-6 -8 -9 -18 -6 -24 3 -5 -1 -11 -9 -15 -8 -3 -15 -11
-15 -18 0 -9 3 -8 10 2 7 11 10 11 10 2 0 -7 4 -11 9 -8 5 4 8 17 7 30 -3 24
7 28 33 12 8 -5 16 -3 22 5 6 10 9 10 9 2 0 -7 7 -10 18 -7 15 5 15 4 2 -6
-13 -10 -13 -12 -1 -17 10 -4 8 -9 -10 -20 -13 -8 -16 -12 -7 -9 10 3 20 1 23
-4 4 -6 11 -10 17 -10 7 0 7 4 0 13 -5 6 -8 24 -6 40 3 27 -5 32 -46 29 -8 0
-22 4 -31 9 -12 6 -21 4 -29 -6z"/>
<path d="M4104 2199 c2 -20 7 -42 11 -49 5 -9 4 -11 -3 -6 -15 9 -15 5 -2 -30
6 -15 13 -24 17 -20 4 3 16 0 28 -8 20 -13 22 -13 22 13 0 17 -6 28 -14 28 -8
0 -12 -7 -8 -16 4 -12 2 -12 -9 2 -10 13 -15 15 -19 5 -3 -7 -4 4 -2 25 1 20
-2 37 -7 37 -5 0 -6 4 -3 10 3 5 2 18 -4 27 -7 14 -9 10 -7 -18z"/>
<path d="M4214 2177 c2 -19 -3 -47 -9 -63 -12 -28 -12 -27 -9 16 2 27 0 40 -5
32 -9 -16 -8 -118 2 -129 4 -3 10 -3 14 1 4 3 2 11 -5 18 -7 7 -8 17 -1 29 10
20 34 16 43 -6 3 -10 -2 -12 -21 -9 -22 4 -24 3 -14 -10 7 -8 10 -20 6 -27 -5
-8 -1 -9 15 -4 19 6 21 4 16 -13 -4 -11 0 -24 9 -32 14 -12 22 0 8 13 -3 4 -8
21 -10 38 -3 27 -1 30 20 24 17 -5 19 -4 7 4 -8 6 -11 11 -7 11 5 0 -1 14 -13
31 -12 16 -25 27 -28 24 -4 -3 0 -10 8 -15 9 -6 10 -10 3 -10 -21 0 -25 21 -8
40 16 18 16 20 -3 45 l-20 26 2 -34z"/>
<path d="M4350 2201 c0 -5 6 -14 14 -20 11 -9 15 -8 20 4 3 9 10 13 16 10 5
-3 10 -1 10 4 0 15 -27 14 -33 -1 -4 -10 -6 -10 -6 0 -1 13 -21 17 -21 3z"/>
<path d="M3847 2186 c-6 -16 11 -36 30 -36 7 0 13 5 13 11 0 5 4 7 10 4 6 -3
7 1 4 9 -3 9 -10 13 -15 10 -6 -3 -16 -1 -23 5 -10 9 -15 8 -19 -3z"/>
<path d="M3362 2183 c-6 -2 -9 -9 -6 -14 3 -6 11 -6 18 -2 7 4 3 0 -8 -10 -16
-15 -17 -20 -6 -30 9 -9 11 -9 6 0 -3 6 -2 14 4 18 13 8 46 -11 54 -30 7 -20
-11 -58 -24 -50 -10 6 3 -35 17 -58 4 -6 8 -24 10 -40 2 -22 -1 -28 -11 -24
-9 4 -13 0 -12 -11 2 -9 9 -17 17 -17 8 0 13 5 12 11 -1 6 12 10 33 9 28 -2
34 0 30 12 -3 8 -6 17 -6 19 0 2 -5 4 -11 4 -5 0 -7 -4 -4 -10 3 -5 1 -10 -5
-10 -7 0 -9 7 -6 16 5 12 1 14 -16 8 -18 -5 -20 -3 -14 12 15 36 14 52 0 58
-12 5 -14 1 -9 -17 5 -17 4 -19 -4 -7 -14 20 -14 26 5 44 8 9 12 16 7 16 -4 0
-1 5 7 10 13 9 13 11 0 21 -13 9 -13 10 2 6 9 -3 19 1 22 9 4 11 1 14 -12 10
-21 -7 -47 8 -38 22 5 9 -24 34 -36 31 -2 0 -9 -3 -16 -6z"/>
<path d="M4070 2175 c-10 -12 -10 -19 -2 -27 9 -9 8 -15 -1 -27 -9 -12 -9 -13
0 -7 9 5 11 2 6 -11 -5 -17 -5 -17 12 -1 15 14 16 20 5 32 -8 11 -9 16 -1 16
6 0 11 5 11 11 0 6 -7 8 -16 5 -14 -5 -15 -4 -4 9 7 8 10 15 7 15 -2 0 -10 -7
-17 -15z"/>
<path d="M3427 2165 c-8 -20 11 -29 28 -15 11 9 15 9 15 1 0 -6 5 -11 11 -11
8 0 7 6 -2 18 -13 15 -12 16 4 3 14 -11 20 -11 35 0 15 12 16 12 5 -2 -11 -13
-9 -16 15 -16 20 0 28 6 29 19 1 10 -2 18 -8 18 -5 0 -9 -5 -9 -11 0 -6 -5 -7
-12 -2 -22 13 -62 11 -81 -5 -16 -14 -17 -14 -11 1 3 9 2 17 -4 17 -5 0 -12
-7 -15 -15z"/>
<path d="M3579 2163 c-13 -16 -12 -17 4 -4 15 12 17 12 11 -3 -3 -9 -1 -16 5
-16 6 0 11 5 11 11 0 5 6 7 13 3 8 -5 8 -2 -2 9 -17 21 -25 21 -42 0z"/>
<path d="M4285 2170 c-3 -5 -4 -14 -1 -19 4 -5 3 -11 -1 -14 -5 -2 -2 -2 5 0
22 5 34 -7 22 -22 -13 -16 -2 -48 15 -41 15 5 48 -31 35 -39 -6 -4 -10 -11
-10 -17 0 -6 6 -6 15 2 9 7 14 19 11 27 -3 7 0 13 6 13 7 0 6 5 -2 15 -18 21
-35 19 -19 -2 13 -16 12 -17 -4 -4 -12 9 -15 17 -8 24 7 7 15 6 25 -2 12 -10
15 -9 13 8 -1 16 -6 20 -22 15 -11 -4 -22 -7 -25 -8 -3 0 -7 3 -10 8 -6 12 50
16 71 5 8 -4 21 -4 28 0 17 11 -11 18 -65 16 -30 -1 -40 3 -37 12 3 7 10 10
16 6 6 -3 7 -1 3 6 -4 6 -11 9 -16 6 -5 -3 -11 -1 -15 5 -8 13 -22 13 -30 0z
m39 -76 c3 -8 2 -12 -4 -9 -6 3 -10 10 -10 16 0 14 7 11 14 -7z"/>
<path d="M3669 2152 c-12 -16 -25 -19 -96 -17 -45 1 -86 -1 -90 -4 -13 -9 -55
-83 -43 -76 9 6 15 -8 11 -29 -1 -5 5 -6 14 -2 9 3 19 6 21 6 2 0 4 5 4 11 0
6 -7 8 -16 5 -9 -3 -12 -2 -9 5 4 6 14 8 22 5 9 -4 13 -1 11 6 -3 7 -10 13
-15 13 -6 0 -14 3 -18 7 -9 8 16 5 31 -5 7 -4 12 2 12 18 0 21 -3 23 -14 14
-8 -7 -16 -10 -19 -8 -2 3 5 10 15 17 17 10 23 9 39 -7 11 -11 22 -17 25 -14
3 3 12 1 19 -6 11 -9 17 -7 28 6 12 14 12 16 -1 11 -9 -3 -29 0 -45 7 l-30 12
27 -1 c16 0 28 -5 28 -9 0 -4 10 -3 21 4 17 8 20 8 14 -1 -5 -9 -1 -10 16 -5
14 4 19 3 12 -2 -9 -6 -7 -12 8 -21 18 -11 19 -10 15 13 -3 15 -1 23 5 20 5
-4 8 -9 6 -13 -2 -4 4 -15 15 -24 24 -24 23 -7 -2 24 -14 19 -16 28 -8 36 7 7
9 14 6 17 -3 4 -12 -2 -19 -13z"/>
<path d="M3768 2153 c-9 -10 -18 -29 -22 -43 -3 -14 -3 -19 0 -12 6 13 25 17
23 5 -3 -21 2 -33 12 -27 8 4 7 9 -2 15 -10 6 -10 9 -2 9 7 0 10 7 7 15 -4 8
-11 12 -17 8 -6 -3 -7 -1 -3 5 4 6 13 9 21 6 8 -4 12 -10 9 -15 -3 -5 -1 -9 4
-9 6 0 13 7 16 16 8 20 8 24 -1 23 -20 -3 -34 2 -28 11 10 16 -1 12 -17 -7z"/>
<path d="M3947 2163 c-11 -17 12 -27 28 -13 11 9 15 9 15 1 0 -6 5 -11 11 -11
8 0 8 5 -1 15 -9 11 -16 12 -25 5 -9 -8 -14 -7 -17 2 -3 9 -6 9 -11 1z"/>
<path d="M4010 2160 c0 -5 5 -10 10 -10 6 0 10 5 10 10 0 6 -4 10 -10 10 -5 0
-10 -4 -10 -10z"/>
<path d="M4152 2158 c-16 -16 -15 -25 3 -25 8 0 12 4 9 8 -2 4 1 9 8 11 8 3 8
7 2 11 -6 3 -16 1 -22 -5z"/>
<path d="M3832 2143 c-6 -11 -9 -23 -6 -26 3 -3 -3 -8 -13 -11 -19 -6 -30 -46
-12 -46 5 0 9 6 9 13 0 8 9 22 20 32 11 10 17 23 14 29 -3 6 1 3 9 -7 9 -11
17 -14 20 -7 3 6 4 5 3 -2 -2 -7 -11 -12 -20 -10 -14 3 -15 0 -4 -17 12 -20
12 -20 28 2 21 31 56 30 52 -1 -3 -23 -3 -23 15 -5 13 12 16 21 9 26 -6 5 0 5
13 2 17 -5 21 -4 16 5 -6 9 -3 9 14 1 15 -8 21 -9 21 -1 0 6 5 8 11 5 14 -9 5
-17 -23 -20 -13 -1 -27 -3 -31 -4 -4 0 -4 -9 2 -18 5 -11 23 -18 42 -19 31 -2
32 -1 14 12 -10 8 -13 14 -7 14 19 0 27 -4 25 -12 -2 -5 2 -8 7 -8 6 0 10 2
10 5 0 9 -24 55 -29 56 -27 6 -69 4 -84 -3 -10 -5 -24 -6 -30 -1 -7 5 -23 8
-37 8 -14 0 -30 6 -36 14 -10 12 -13 11 -22 -6z m178 -57 c0 -3 -4 -8 -10 -11
-5 -3 -10 -1 -10 4 0 6 5 11 10 11 6 0 10 -2 10 -4z"/>
<path d="M3515 2101 c-3 -6 -2 -11 4 -11 16 0 -28 -68 -49 -75 -10 -3 -21 -12
-24 -20 -3 -9 0 -12 9 -9 16 7 58 -32 52 -49 -2 -7 -16 -12 -31 -11 -23 0 -25
-2 -12 -15 12 -12 18 -12 30 -1 13 10 16 10 16 0 0 -9 7 -7 20 5 28 25 25 43
-2 19 -23 -19 -23 -19 -5 2 9 11 17 24 17 29 0 4 -8 1 -17 -6 -10 -7 -15 -10
-11 -5 4 5 1 15 -7 23 -17 17 -20 42 -5 44 6 1 15 2 22 3 6 0 13 7 16 14 2 6
-2 10 -10 9 -7 -2 -10 -2 -5 0 4 3 5 9 2 14 -4 5 1 6 11 2 14 -5 15 -3 4 18
-17 32 -17 32 -25 20z"/>
<path d="M3890 2090 c-22 -22 -26 -40 -9 -40 5 0 7 4 4 10 -3 6 1 7 10 4 11
-5 14 -2 9 12 -4 14 -3 16 4 5 5 -7 7 -23 5 -35 -4 -17 -3 -18 7 -6 9 12 10
11 5 -8 -4 -12 -3 -22 2 -21 23 4 35 -2 29 -17 -3 -8 -2 -13 3 -9 5 3 11 -1
13 -7 3 -7 5 1 5 18 0 22 -5 31 -16 30 -9 0 -16 6 -16 14 0 8 8 14 18 13 12
-1 17 4 13 14 -3 8 -6 17 -6 19 0 2 -5 4 -11 4 -5 0 -8 -4 -5 -9 3 -5 -1 -11
-9 -15 -19 -7 -41 30 -22 37 9 4 9 6 0 6 -7 1 -22 -8 -33 -19z"/>
<path d="M4398 2103 c6 -3 9 -10 5 -16 -4 -7 -9 -21 -10 -31 -2 -11 -10 -27
-18 -36 -8 -9 -12 -20 -8 -23 9 -10 25 -9 19 1 -2 4 -1 14 3 21 6 9 11 10 15
2 4 -6 3 -11 -3 -11 -5 0 -8 -9 -6 -20 3 -16 1 -18 -13 -11 -10 5 -34 8 -53 7
-22 -1 -35 3 -33 9 5 13 44 14 44 1 0 -5 3 -7 6 -4 8 8 -14 48 -26 48 -8 0
-60 -90 -60 -103 0 -2 7 -4 15 -4 10 0 14 7 10 21 -3 12 -2 15 1 8 5 -10 9 -9
18 4 12 15 13 15 29 -1 9 -9 17 -12 17 -6 0 5 9 9 20 8 11 -1 20 -5 20 -10 0
-4 -7 -7 -16 -5 -10 2 -19 -2 -21 -7 -2 -6 7 -11 20 -13 15 -1 24 4 25 13 1 8
3 22 4 30 1 8 7 17 15 19 11 5 11 10 -3 31 -9 14 -13 25 -8 24 23 -4 26 2 8
17 -10 8 -14 13 -8 10 9 -5 24 13 24 28 0 1 -10 2 -22 3 -13 0 -17 -1 -10 -4z"/>
<path d="M3607 2093 c-13 -12 -7 -25 7 -14 10 9 16 8 25 -3 15 -18 51 -17 51
2 0 11 -3 12 -13 4 -8 -7 -18 -6 -31 4 -22 16 -30 17 -39 7z"/>
<path d="M3827 2093 c-11 -11 -8 -23 6 -20 6 1 11 -3 10 -10 -1 -6 4 -17 12
-23 19 -16 19 -7 0 30 -17 32 -18 33 -28 23z"/>
<path d="M4078 2078 c-9 -13 -26 -23 -44 -24 -50 -3 -54 -4 -54 -13 0 -6 9 -9
19 -8 11 0 17 5 15 9 -3 4 0 8 6 8 7 0 9 -8 5 -20 -5 -15 -3 -18 8 -14 8 3 18
0 22 -6 5 -8 11 -8 21 1 16 13 19 39 3 39 -5 0 -7 5 -3 11 4 8 9 7 16 -2 8
-11 9 -10 4 3 -3 10 -1 20 4 23 5 3 7 -8 5 -24 -3 -22 0 -29 10 -25 21 8 25
-10 10 -40 -13 -25 -13 -27 1 -22 9 3 18 6 20 6 3 0 2 5 -1 10 -4 6 -2 17 5
25 8 10 6 17 -12 29 -12 9 -19 16 -15 16 4 0 3 9 -3 20 -14 26 -24 25 -42 -2z
m-6 -42 c7 4 8 2 4 -4 -4 -6 -13 -9 -21 -6 -8 4 -12 11 -8 17 5 8 8 7 11 -1 2
-7 9 -9 14 -6z"/>
<path d="M3553 2065 c0 -27 -21 -58 -33 -50 -18 11 -21 -18 -5 -33 10 -10 15
-11 11 -4 -4 6 -2 12 4 12 6 0 8 5 5 10 -6 9 8 15 29 11 5 -1 6 6 2 14 -8 22
1 35 19 29 8 -4 13 -10 10 -14 -3 -4 3 -14 12 -21 14 -12 15 -11 10 6 -4 11
-2 27 4 35 8 12 9 9 5 -10 -3 -14 -3 -19 0 -12 5 10 9 10 20 1 21 -18 17 5 -5
25 -13 12 -21 14 -26 6 -5 -8 -14 -7 -31 4 -30 21 -31 20 -31 -9z"/>
<path d="M4131 2082 c-1 -7 13 -26 29 -44 17 -17 30 -37 30 -44 0 -8 4 -14 10
-14 5 0 7 7 3 16 -5 14 -3 14 15 -2 12 -9 19 -21 16 -26 -3 -4 0 -8 6 -8 6 0
8 -6 4 -12 -5 -10 -4 -10 6 -1 11 10 10 16 -4 32 -10 11 -15 25 -10 32 4 7 3
10 -4 6 -17 -11 -42 4 -58 35 -8 16 -19 26 -24 23 -4 -3 -11 1 -13 7 -4 11 -6
10 -6 0z"/>
<path d="M3822 2061 c-7 -4 -44 -7 -83 -6 -59 2 -69 -1 -69 -15 0 -23 26 -45
35 -30 4 6 12 9 18 7 6 -2 19 5 30 16 15 15 21 16 33 6 13 -10 17 -10 25 2 6
10 9 11 9 1 0 -7 4 -10 10 -7 5 3 7 0 4 -8 -3 -8 2 -14 11 -14 19 0 19 11 0
27 -8 7 -12 16 -9 21 6 11 3 11 -14 0z m-72 -16 c0 -2 -13 -8 -30 -13 -21 -8
-32 -8 -36 0 -4 7 -2 8 4 4 7 -4 12 -4 12 1 0 4 11 9 25 9 14 1 25 1 25 -1z"/>
<path d="M3575 2017 c4 -49 4 -49 15 -42 8 5 7 12 -2 23 -12 15 -11 16 5 3 22
-18 22 -5 -2 25 l-19 24 3 -33z"/>
<path d="M3877 2029 c-22 -31 -22 -46 1 -22 9 10 14 14 10 9 -15 -19 -8 -28
10 -15 15 13 16 12 3 -3 -8 -11 -9 -18 -3 -18 19 0 23 19 9 46 l-14 27 -16
-24z"/>
<path d="M3950 2040 c0 -5 5 -10 10 -10 6 0 10 5 10 10 0 6 -4 10 -10 10 -5 0
-10 -4 -10 -10z"/>
<path d="M3773 2021 c1 -16 6 -20 22 -15 16 4 17 3 5 -6 -12 -8 -10 -10 12 -7
15 1 31 7 35 12 4 4 2 5 -5 1 -7 -4 -15 -1 -18 8 -3 9 -10 13 -15 10 -6 -3
-16 0 -24 6 -11 9 -14 7 -12 -9z"/>
<path d="M3612 1994 l-22 -36 20 -25 c24 -31 27 -18 4 16 -16 22 -16 22 4 10
11 -7 20 -15 20 -18 0 -4 0 -12 1 -20 2 -21 14 -5 17 23 2 17 -2 23 -14 22
-18 -1 -18 31 -1 49 7 7 8 3 3 -10 -6 -16 -5 -18 7 -10 8 6 6 1 -6 -9 -21 -20
-19 -20 30 0 14 6 20 -6 16 -29 -1 -5 9 -6 21 -2 13 3 18 3 12 -2 -8 -6 -5
-14 7 -27 19 -19 19 -19 17 8 -2 19 -10 31 -25 37 -13 5 -23 11 -23 13 0 3 7
2 17 -1 10 -4 14 -2 10 4 -3 5 0 10 7 10 9 0 12 -7 8 -16 -5 -14 -4 -14 14 -1
18 14 18 14 5 -2 -15 -21 -2 -24 19 -5 12 10 12 9 1 -5 -15 -20 -2 -25 17 -6
9 9 12 9 12 0 0 -7 5 -12 11 -12 5 0 8 4 5 8 -2 4 4 9 15 9 10 1 19 -4 19 -10
0 -7 4 -6 11 3 8 12 9 11 5 -6 -5 -14 -2 -21 9 -21 17 0 17 3 6 32 -5 13 -18
20 -39 21 -18 1 -32 -3 -32 -7 0 -5 -16 -1 -35 8 -21 10 -31 20 -24 24 7 4 8
9 1 13 -5 3 -12 -1 -16 -9 -3 -8 -12 -12 -20 -9 -8 3 -17 0 -21 -5 -4 -8 -15
-5 -32 9 -14 11 -28 20 -32 20 -3 -1 -16 -17 -29 -36z"/>
<path d="M3994 2018 c-5 -7 -9 -25 -10 -41 -1 -22 1 -25 12 -16 8 6 11 15 8
20 -3 5 2 6 12 2 14 -5 15 -3 4 18 -17 32 -17 32 -26 17z"/>
<path d="M4098 2019 c-10 -5 -18 -15 -18 -21 0 -6 7 -5 18 3 16 13 16 13 2 -5
-13 -17 -13 -19 0 -14 8 2 15 11 15 19 0 8 5 17 10 21 15 12 -7 9 -27 -3z"/>
<path d="M4155 2010 c-4 -6 -3 -16 3 -22 6 -6 12 -6 17 2 4 6 3 16 -3 22 -6 6
-12 6 -17 -2z"/>
<path d="M3547 1996 c-4 -10 -2 -26 3 -37 13 -24 -15 -66 -45 -67 -31 -1 -64
-8 -70 -14 -9 -8 71 -88 80 -80 5 4 5 2 1 -5 -4 -7 -14 -9 -24 -6 -15 6 -15 4
1 -15 11 -12 27 -19 39 -17 29 6 41 -4 27 -21 -9 -12 -8 -19 8 -37 11 -12 18
-28 15 -36 -3 -9 0 -11 9 -6 7 5 24 10 37 11 35 4 55 23 41 40 -6 7 -8 17 -5
23 3 5 -1 11 -9 15 -18 6 -18 5 -5 -28 6 -17 6 -27 -2 -32 -6 -4 -8 -3 -5 3 4
6 0 14 -9 17 -12 4 -14 1 -9 -14 4 -12 2 -20 -5 -20 -6 0 -8 5 -5 10 3 6 1 10
-5 10 -6 0 -8 5 -5 10 3 6 1 10 -5 10 -7 0 -10 -7 -6 -17 5 -16 4 -16 -8 1 -8
10 -13 31 -11 47 2 16 -1 27 -6 24 -5 -3 -6 0 -3 8 3 8 -2 20 -11 27 -18 15
-20 -1 -2 -19 10 -10 8 -11 -7 -5 -12 5 -17 4 -13 -3 3 -5 -1 -10 -9 -10 -10
0 -11 4 -4 11 5 5 10 19 10 30 0 10 -3 16 -6 13 -11 -10 -45 13 -38 25 5 8 1
9 -12 5 -18 -7 -18 -6 -1 7 14 11 15 15 5 20 -7 3 -2 3 11 0 17 -5 21 -3 16 6
-6 9 -4 11 5 5 8 -5 18 -1 27 10 7 11 13 14 13 9 0 -6 -6 -16 -12 -22 -10 -10
-7 -12 12 -10 21 3 25 -1 22 -22 -4 -24 -3 -25 12 -5 14 18 14 21 -2 35 -18
15 -23 43 -9 48 17 5 28 1 21 -9 -4 -8 -9 -7 -16 2 -7 11 -8 9 -4 -4 3 -10 6
-20 6 -23 0 -2 6 -1 14 2 19 7 30 -14 17 -30 -8 -10 -7 -16 3 -25 12 -10 15
-9 14 6 -1 10 2 28 6 41 4 12 4 22 -1 21 -19 -3 -34 2 -28 10 3 5 1 12 -5 16
-6 3 -18 22 -29 42 -14 29 -19 32 -24 19z"/>
<path d="M3917 1984 c-10 -13 -15 -29 -12 -34 10 -16 27 0 20 19 -5 12 -4 13
6 4 9 -9 9 -15 0 -26 -9 -11 -8 -17 6 -28 15 -12 16 -12 11 2 -8 20 6 46 16
30 4 -6 3 -11 -3 -11 -6 0 -8 -7 -4 -16 5 -14 7 -14 15 -1 11 21 0 45 -24 53
-15 4 -17 8 -8 14 7 4 8 10 4 13 -5 3 -17 -6 -27 -19z"/>
<path d="M4032 1993 c1 -10 -2 -27 -5 -39 -5 -15 -3 -21 8 -21 11 0 14 7 9 21
-4 17 -3 18 5 6 7 -10 11 -11 11 -2 0 17 25 15 40 -3 7 -9 19 -14 27 -11 7 3
13 2 13 -3 0 -4 7 -8 15 -8 9 0 14 5 12 11 -3 6 -10 10 -16 8 -7 -1 -10 2 -6
8 5 8 11 8 20 0 10 -8 14 -7 18 2 4 11 6 10 6 0 1 -7 6 -10 11 -7 6 3 10 1 10
-5 0 -7 -7 -10 -15 -6 -17 6 -19 -2 -5 -24 9 -13 10 -13 10 0 0 13 1 13 10 0
11 -17 11 -16 15 26 2 31 2 32 -43 29 -26 -1 -48 -7 -50 -14 -2 -7 -14 -4 -33
10 -16 11 -33 18 -38 14 -5 -3 -13 0 -17 6 -5 8 -3 9 6 4 9 -5 11 -4 6 3 -11
18 -25 14 -24 -5z"/>
<path d="M3668 1964 c-2 -33 -4 -38 -17 -63 -8 -14 -14 -44 -15 -68 -1 -24 -5
-43 -9 -43 -4 0 -12 0 -19 0 -6 0 -8 3 -5 7 4 3 1 13 -6 22 -11 14 -10 14 6 2
20 -16 24 1 3 18 -16 14 -29 -8 -20 -36 3 -10 -4 -2 -14 17 -13 22 -16 37 -10
41 8 5 -35 5 -63 0 -9 -2 -7 -31 3 -32 42 -7 67 -21 74 -42 4 -12 5 -22 3 -23
-2 0 2 -8 10 -17 9 -11 10 -17 2 -17 -6 0 -11 -4 -11 -8 0 -4 8 -8 19 -8 13 0
18 7 17 23 0 13 -6 21 -12 19 -6 -2 -11 2 -11 9 0 10 5 11 18 4 19 -9 22 -7
46 40 11 20 11 22 -2 17 -13 -4 -14 -2 -5 14 6 11 8 25 5 30 -3 5 -1 18 5 27
9 15 10 14 4 -7 -6 -22 -5 -23 10 -11 9 8 15 20 12 28 -3 8 -2 12 3 8 5 -3 12
1 15 7 3 7 4 4 1 -7 -5 -22 10 -53 21 -42 4 3 1 15 -7 24 -13 16 -12 17 4 4
10 -8 16 -20 13 -28 -6 -15 3 -17 23 -4 8 5 11 16 8 25 -5 14 -3 15 13 6 28
-15 34 -12 13 8 -10 9 -12 13 -4 7 12 -8 13 -6 7 10 -5 13 -4 17 3 10 17 -18
17 -50 -1 -49 -12 1 -16 -5 -14 -22 3 -25 16 -46 16 -26 0 7 0 15 1 20 1 8 30
26 43 27 5 0 11 6 14 13 2 7 -2 10 -11 6 -20 -7 -33 14 -18 29 9 9 11 8 6 -5
-4 -11 -2 -18 4 -18 6 0 11 6 11 13 0 9 2 9 9 -1 4 -8 17 -12 28 -10 11 1 27
-3 36 -11 10 -7 17 -9 17 -3 0 17 -26 32 -48 27 -15 -2 -26 3 -33 16 -7 14
-14 17 -22 11 -7 -6 -30 -8 -52 -7 -21 2 -34 0 -27 -4 9 -5 9 -11 -1 -25 -12
-16 -15 -15 -42 10 -17 15 -30 31 -30 35 0 18 -15 20 -17 3z m17 -24 c3 -5 1
-10 -4 -10 -6 0 -11 5 -11 10 0 6 2 10 4 10 3 0 8 -4 11 -10z m-162 -95 c-3
-9 -8 -14 -10 -11 -3 3 -2 9 2 15 9 16 15 13 8 -4z"/>
<path d="M3996 1949 c-8 -12 -13 -26 -10 -31 5 -7 -3 -10 -22 -7 -8 1 -24 -23
-24 -36 0 -5 5 -3 11 5 9 13 10 13 6 0 -2 -9 -13 -14 -28 -12 -24 4 -24 3 -4
-12 18 -14 21 -14 38 5 9 12 17 18 17 14 0 -4 7 -2 15 5 8 7 15 17 15 23 0 7
-4 7 -12 -1 -7 -7 -16 -12 -22 -12 -5 0 -1 6 9 14 11 8 23 12 27 10 5 -3 8 0
8 5 0 6 -5 11 -11 11 -8 0 -7 5 1 15 7 9 10 18 7 21 -3 3 -12 -5 -21 -17z"/>
<path d="M4302 1945 c-7 -14 -17 -23 -22 -20 -6 3 -10 1 -10 -4 0 -15 23 -14
39 2 11 10 13 10 7 0 -4 -7 -2 -13 3 -13 6 0 11 5 11 11 0 8 4 8 13 2 21 -17
46 -23 52 -12 4 5 3 9 -2 8 -4 -1 -11 0 -15 1 -5 1 -12 3 -17 4 -5 0 -17 12
-28 25 l-19 23 -12 -27z"/>
<path d="M4056 1933 c-8 -16 -15 -21 -16 -13 0 8 -8 1 -19 -15 -10 -17 -30
-39 -45 -49 -15 -10 -25 -20 -21 -24 3 -4 10 0 15 8 6 9 10 10 10 3 0 -21 -21
-25 -40 -8 -23 21 -86 29 -87 12 0 -7 -2 -18 -4 -26 -2 -7 10 -22 28 -32 31
-17 32 -17 30 2 -1 13 -6 17 -18 14 -21 -7 -31 6 -18 25 5 8 9 11 9 6 0 -5 8
-2 18 5 15 13 16 12 3 -3 -15 -21 -2 -24 19 -5 12 10 12 9 1 -5 -11 -14 -10
-17 6 -16 10 1 28 -2 41 -6 12 -4 22 -4 21 1 -4 23 2 35 17 29 10 -4 14 -2 11
6 -2 7 -10 12 -16 10 -7 -1 -10 2 -6 7 3 6 12 8 19 5 9 -3 13 1 13 12 -1 9 4
19 11 21 6 3 12 0 12 -7 0 -6 -4 -8 -10 -5 -5 3 -10 2 -10 -3 0 -8 22 -22 35
-22 1 0 2 16 0 36 -1 24 1 32 8 25 21 -21 30 -11 11 11 -19 22 -19 23 1 8 11
-8 23 -19 26 -23 3 -5 10 -9 15 -9 10 0 10 -2 0 -33 -5 -16 -1 -21 15 -22 17
-2 18 1 9 13 -9 10 -10 18 -1 27 6 8 8 17 4 21 -4 4 0 4 9 1 9 -4 21 -19 26
-34 9 -27 45 -40 57 -20 4 5 -1 9 -9 9 -9 0 -16 6 -16 13 0 8 -4 7 -11 -3 -8
-12 -9 -10 -4 9 5 16 4 21 -4 17 -6 -4 -13 -1 -16 6 -3 7 -19 14 -36 14 -16 1
-38 9 -48 18 -24 22 -28 21 -45 -11z"/>
<path d="M4235 1931 c3 -5 1 -12 -5 -16 -16 -10 -12 -23 11 -35 15 -9 24 -8
35 1 10 8 14 8 14 0 0 -6 5 -11 11 -11 5 0 7 5 3 11 -4 7 1 7 15 -1 17 -9 26
-8 39 2 15 12 16 11 3 -4 -7 -10 -9 -18 -3 -18 15 0 23 28 10 36 -17 11 -68
12 -68 2 0 -5 -9 -4 -21 2 -15 9 -24 8 -37 -2 -14 -10 -14 -9 1 8 16 19 16 22
2 28 -9 3 -13 2 -10 -3z"/>
<path d="M3900 1902 c0 -6 -6 -9 -13 -6 -8 3 -20 -2 -27 -10 -7 -9 -16 -13
-21 -11 -13 9 -41 -53 -32 -70 7 -12 11 -11 22 7 11 18 11 20 -3 15 -10 -4
-13 -1 -10 8 3 8 13 11 22 8 13 -4 14 -3 4 5 -11 7 -10 10 3 16 9 3 21 4 26 1
5 -3 20 0 34 8 24 12 25 15 11 26 -10 9 -16 10 -16 3z m-10 -22 c0 -5 -5 -10
-11 -10 -5 0 -7 5 -4 10 3 6 8 10 11 10 2 0 4 -4 4 -10z"/>
<path d="M4079 1898 c10 -13 10 -18 2 -18 -7 0 -9 -5 -5 -11 4 -8 9 -8 17 0 8
8 6 16 -8 29 -18 16 -18 16 -6 0z"/>
<path d="M4105 1892 c9 -23 -13 -41 -46 -37 -16 2 -29 0 -29 -5 0 -4 -3 -16
-6 -24 -5 -12 -2 -15 9 -10 9 3 14 13 10 22 -4 15 -3 15 7 2 10 -13 12 -13 17
-1 4 10 9 8 20 -10 8 -13 12 -16 9 -7 -3 10 -2 20 3 22 12 8 10 -27 -3 -43 -9
-12 -7 -13 7 -8 24 9 38 1 31 -18 -4 -8 -10 -13 -14 -10 -4 3 -13 -1 -19 -8
-8 -11 -5 -14 19 -14 16 0 27 4 24 9 -3 5 -1 15 6 23 8 10 6 17 -12 29 -12 9
-19 16 -15 16 4 0 3 9 -3 19 -6 13 -7 28 -1 44 7 18 6 24 -5 24 -9 0 -13 -6
-9 -15z"/>
<path d="M4155 1890 c-4 -6 -2 -17 4 -24 8 -10 7 -17 -4 -26 -12 -10 -15 -10
-15 0 0 8 -3 10 -7 7 -4 -4 3 -20 15 -37 13 -18 18 -31 12 -35 -6 -4 -9 -14
-8 -23 2 -12 -5 -17 -27 -18 -40 -1 -55 5 -55 23 0 8 -5 11 -10 8 -6 -4 -9
-14 -8 -23 2 -12 -3 -16 -17 -15 -14 1 -21 -4 -22 -17 -2 -18 -1 -18 34 1 32
18 37 19 52 4 22 -19 37 -20 21 0 -9 10 -9 15 -1 15 6 0 11 -5 11 -11 0 -5 4
-7 10 -4 6 4 7 -1 3 -11 -4 -12 -3 -15 6 -10 7 5 10 15 7 25 -5 12 -3 12 9 -3
8 -10 12 -23 8 -29 -3 -5 4 -6 18 -2 19 5 21 4 9 -4 -13 -9 -11 -11 6 -11 16
0 22 6 22 25 0 20 -3 23 -14 14 -17 -14 -37 -2 -30 18 4 10 2 13 -7 10 -8 -3
-14 0 -14 7 0 7 6 13 14 13 7 0 13 -4 13 -9 0 -4 4 -8 9 -8 6 0 9 9 8 20 -1
15 -6 19 -22 14 -16 -4 -17 -3 -5 5 12 9 13 11 1 11 -8 0 -11 3 -8 6 3 4 2 16
-4 27 -8 14 -8 18 0 13 6 -4 11 -1 11 6 0 10 2 10 9 -1 5 -8 14 -10 21 -6 9 6
11 4 6 -4 -5 -7 -15 -10 -23 -7 -11 5 -13 2 -9 -10 3 -8 6 -18 6 -20 0 -2 5
-4 11 -4 5 0 8 4 5 9 -3 5 1 11 9 15 8 3 17 0 21 -6 4 -6 3 -8 -3 -5 -6 4 -14
0 -17 -9 -5 -12 -2 -15 10 -10 8 3 18 6 20 6 20 0 -16 57 -38 60 -23 3 -36 13
-32 25 7 16 -12 29 -21 15z"/>
<path d="M3595 1880 c3 -5 8 -10 11 -10 2 0 4 5 4 10 0 6 -5 10 -11 10 -5 0
-7 -4 -4 -10z"/>
<path d="M3681 1877 c-6 -8 -8 -17 -4 -20 3 -4 1 -7 -7 -7 -10 0 -10 -3 0 -15
13 -15 30 -12 30 6 0 6 -4 8 -8 5 -5 -3 -9 1 -9 9 0 24 16 17 23 -10 3 -14 10
-25 15 -25 5 0 6 8 3 18 -5 15 -4 15 6 2 9 -12 13 -12 17 -2 7 18 45 -32 38
-50 -4 -9 0 -15 10 -15 19 0 19 1 -2 40 -9 18 -16 39 -15 47 2 10 0 11 -5 4
-12 -16 -54 -10 -68 10 -10 13 -14 14 -24 3z"/>
<path d="M4253 1854 c-17 -13 -17 -15 -1 -27 11 -9 14 -18 7 -28 -5 -8 -9 -18
-9 -24 0 -5 5 -3 10 5 6 9 10 10 10 3 0 -16 -17 -26 -25 -14 -3 6 -12 8 -20 5
-8 -4 -12 -11 -9 -16 4 -6 10 -5 16 3 7 11 8 9 4 -4 -5 -15 -2 -17 13 -12 11
3 22 2 25 -3 3 -5 -9 -8 -28 -7 -35 3 -65 -9 -53 -21 3 -4 13 -2 20 5 11 9 17
8 26 -3 9 -11 9 -15 -1 -19 -8 -4 -9 -6 -1 -6 13 -1 63 55 63 70 0 6 6 7 13 3
6 -4 9 -3 4 1 -4 5 -1 15 7 24 8 9 16 21 18 26 2 6 6 9 10 8 8 -3 4 24 -5 33
-13 13 -76 12 -94 -2z m40 -38 c0 -22 2 -24 13 -15 8 7 17 9 21 5 3 -3 1 -6
-5 -6 -6 0 -19 -12 -27 -27 -9 -16 -14 -20 -10 -9 3 10 0 25 -6 32 -9 11 -8
14 1 14 7 0 4 7 -7 18 -10 9 -12 13 -4 7 12 -8 13 -6 7 10 -5 15 -4 17 5 8 6
-6 12 -23 12 -37z m30 37 c-7 -2 -13 -9 -13 -14 0 -6 5 -7 10 -4 6 3 10 1 10
-4 0 -14 -17 -14 -25 -1 -8 13 3 30 18 29 9 0 9 -2 0 -6z m-53 -127 c0 -3 -4
-8 -10 -11 -5 -3 -10 -1 -10 4 0 6 5 11 10 11 6 0 10 -2 10 -4z"/>
<path d="M3747 1823 c-4 -4 -24 -7 -44 -8 -20 0 -38 -5 -40 -12 -5 -13 29 -12
39 2 5 6 8 5 8 -3 0 -7 5 -10 10 -7 6 3 10 1 10 -5 0 -7 -7 -9 -16 -6 -9 4
-14 1 -12 -6 2 -6 14 -13 25 -14 17 -3 21 1 18 21 -1 14 2 28 8 32 6 3 7 1 3
-5 -4 -7 -2 -12 4 -12 6 0 8 -6 4 -12 -5 -10 -4 -10 7 0 11 10 11 15 -2 27 -8
9 -18 12 -22 8z"/>
<path d="M3999 1825 c-1 -3 -2 -9 -3 -14 -2 -18 -13 -21 -38 -12 -14 5 -30 6
-37 2 -18 -11 5 -19 46 -16 18 1 30 -2 27 -7 -3 -5 -15 -6 -27 -3 -21 6 -21 6
-3 -9 22 -18 51 -3 42 21 -3 8 -1 11 4 8 6 -3 10 -1 10 4 0 6 -5 11 -11 11 -5
0 -7 5 -4 10 3 6 4 10 1 10 -3 0 -7 -2 -7 -5z"/>
<path d="M4053 1818 c-13 -6 -23 -14 -23 -18 0 -4 -9 -19 -21 -34 -20 -25 -23
-26 -45 -12 -16 12 -25 13 -30 4 -4 -7 -3 -8 4 -4 7 4 10 2 7 -6 -6 -16 11
-45 21 -35 4 3 1 15 -7 24 -13 16 -12 17 4 4 10 -8 16 -19 13 -26 -2 -6 4 -16
13 -22 13 -8 17 -7 17 8 0 9 -4 15 -8 13 -4 -3 -8 -1 -8 4 0 14 27 22 48 16
12 -4 14 -3 4 4 -11 7 -10 12 4 27 16 15 19 15 29 2 9 -13 14 -12 35 6 16 13
19 18 8 14 -25 -9 -54 3 -36 14 10 7 11 9 0 9 -7 0 -10 5 -7 10 7 12 7 12 -22
-2z m-12 -44 c-11 -15 -21 -24 -21 -20 0 10 34 55 39 51 2 -2 -6 -16 -18 -31z"/>
<path d="M3823 1787 c-12 -25 -35 -29 -63 -12 -6 4 -9 1 -8 -6 5 -21 -41 -18
-56 3 -11 16 -18 18 -33 9 -35 -18 -46 -38 -33 -58 11 -17 11 -17 6 0 -10 30
3 38 35 22 22 -12 29 -13 29 -3 0 8 5 6 11 -5 12 -21 4 -38 -16 -31 -8 4 -12
10 -9 15 3 5 0 9 -5 9 -16 0 -14 -9 8 -36 14 -18 19 -36 16 -65 l-4 -40 20 25
c23 29 25 44 4 26 -10 -9 -15 -9 -15 -1 0 6 5 11 11 11 8 0 8 4 -1 15 -16 19
7 53 33 49 10 -1 16 3 14 9 -2 7 -11 11 -20 9 -8 -1 -19 3 -23 9 -4 8 -3 9 5
5 6 -4 20 -2 29 5 9 7 14 9 10 5 -4 -5 -3 -15 3 -23 9 -9 8 -17 -1 -27 -9 -12
-8 -15 9 -13 16 1 20 6 15 22 -11 36 -9 40 19 38 15 -1 25 1 23 6 -3 4 1 8 9
8 8 0 12 -4 9 -9 -3 -4 0 -8 5 -8 16 0 13 15 -7 40 l-18 22 -11 -25z m-134
-20 c8 -10 7 -14 -2 -14 -8 0 -14 6 -14 14 0 7 1 13 2 13 2 0 8 -6 14 -13z"/>
<path d="M3874 1763 c0 -12 -6 -18 -19 -18 -11 -1 -19 -7 -17 -14 1 -7 -1 -10
-6 -7 -5 3 -9 -8 -9 -25 0 -20 4 -26 10 -20 7 7 15 7 26 -2 12 -10 14 -9 9 5
-4 9 1 32 11 52 17 33 17 46 0 46 -4 0 -6 -8 -5 -17z m-20 -53 c-6 -6 -10 -3
-10 10 0 13 4 16 10 10 7 -7 7 -13 0 -20z"/>
<path d="M3900 1753 c-11 -15 -18 -33 -16 -40 3 -7 2 -13 -3 -13 -4 0 -7 -17
-5 -37 1 -20 0 -32 -4 -27 -4 6 -14 3 -24 -8 -17 -17 -17 -18 8 -16 17 2 29
11 35 26 12 30 11 35 -2 26 -8 -4 -8 0 0 15 7 12 9 26 6 31 -3 5 -1 18 5 27 9
15 10 14 4 -6 -4 -15 -2 -21 4 -17 11 6 42 -19 42 -33 0 -5 -7 -14 -15 -21 -8
-7 -12 -17 -8 -24 4 -6 -1 -5 -10 3 -23 18 -21 5 3 -26 l19 -25 -4 30 c-4 36
22 53 41 27 7 -10 15 -12 18 -6 4 5 -3 15 -14 21 -11 6 -20 16 -20 23 0 8 4 7
10 -3 5 -8 13 -11 17 -6 4 5 2 11 -5 13 -29 11 -59 49 -56 71 5 29 0 28 -26
-5z"/>
<path d="M3800 1726 c9 -25 7 -56 -4 -74 -9 -15 0 -29 11 -19 13 14 11 114 -3
114 -8 0 -10 -7 -4 -21z"/>
<path d="M4061 1702 c-8 -14 -5 -18 11 -19 17 -2 18 0 6 15 -12 15 -11 16 4 4
11 -9 15 -22 12 -39 -4 -23 -3 -25 11 -13 8 7 18 10 22 7 3 -4 12 1 20 11 10
14 12 14 8 1 -3 -9 1 -22 10 -29 18 -15 20 0 3 20 -7 8 -3 6 10 -4 12 -11 22
-14 22 -8 0 6 -9 16 -20 22 -11 6 -17 16 -14 22 5 7 2 8 -7 2 -19 -12 -52 -5
-62 12 -11 19 -24 18 -36 -4z"/>
<path d="M3734 1695 c-18 -14 -18 -16 -2 -28 9 -7 18 -24 20 -38 2 -13 7 -30
11 -36 5 -8 3 -13 -4 -13 -7 0 -10 -2 -7 -5 9 -10 35 6 35 21 0 8 -6 13 -12
10 -6 -2 -12 2 -12 9 0 10 5 11 19 4 10 -6 16 -14 13 -19 -3 -5 -1 -11 5 -15
5 -3 10 2 10 11 0 17 1 16 13 -1 9 -11 16 -14 20 -8 4 6 0 13 -8 17 -19 7 -20
26 -1 26 18 0 30 30 17 43 -6 6 -15 -2 -25 -22 -9 -17 -21 -31 -26 -31 -16 0
-22 21 -10 35 10 11 10 15 1 15 -7 0 -9 5 -5 12 4 7 3 8 -5 4 -6 -4 -9 -11 -6
-16 8 -14 -24 -5 -38 10 -10 12 -9 12 5 1 15 -11 17 -10 15 8 -1 12 -2 21 -2
21 -1 0 -10 -7 -21 -15z"/>
<path d="M3919 1697 c12 -15 12 -17 -3 -11 -9 3 -16 1 -16 -5 0 -6 5 -11 11
-11 5 0 7 -6 3 -12 -4 -7 2 -5 12 5 18 17 18 17 -1 35 -18 16 -18 16 -6 -1z"/>
<path d="M4011 1680 c-13 -11 -22 -20 -20 -21 2 0 15 -2 28 -5 13 -2 30 -8 39
-13 12 -7 10 -9 -11 -8 -15 1 -27 6 -27 10 0 5 -5 5 -10 2 -22 -13 2 -22 55
-20 54 1 75 9 62 22 -4 4 -12 2 -19 -5 -13 -13 -48 2 -48 21 0 8 3 8 9 -2 6
-9 11 -10 15 -2 4 6 2 12 -3 12 -6 1 -17 2 -23 3 -7 1 -12 7 -10 14 3 17 -9
14 -37 -8z m34 -18 c-3 -3 -11 0 -18 7 -9 10 -8 11 6 5 10 -3 15 -9 12 -12z"/>
<path d="M4136 1635 c-3 -8 -1 -17 3 -20 5 -3 11 2 15 10 3 8 1 17 -3 20 -5 3
-11 -2 -15 -10z"/>
<path d="M3883 1604 c-4 -12 -8 -13 -13 -3 -5 7 -7 2 -7 -13 1 -15 8 -25 19
-25 20 -2 42 32 33 47 -9 15 -25 12 -32 -6z m20 -19 c-7 -21 -12 -19 -10 4 0
11 5 18 9 15 4 -3 5 -11 1 -19z"/>
</g>
</svg>
